<svg width="32" height="32" viewBox="0 0 32 32" fill="none" xmlns="http://www.w3.org/2000/svg">
<g clip-path="url(#clip0_1109_524)">
<path d="M24.5 0H7.5C3.35786 0 0 3.35786 0 7.5V24.5C0 28.6421 3.35786 32 7.5 32H24.5C28.6421 32 32 28.6421 32 24.5V7.5C32 3.35786 28.6421 0 24.5 0Z" fill="#007ACC"/>
<path d="M7.07629 16.1061L7.06616 17.4166H11.2312V29.2515H14.1773V17.4166H18.3423V16.1315C18.3423 15.4203 18.3272 14.8261 18.3068 14.8108C18.2915 14.7906 15.7569 14.7803 12.6839 14.7855L7.09154 14.8007L7.07629 16.1061ZM25.8208 14.7635C26.6334 14.9667 27.2532 15.3273 27.822 15.9165C28.1167 16.2315 28.5534 16.8055 28.589 16.9426C28.5992 16.9832 27.2074 17.9178 26.3643 18.441C26.3338 18.4613 26.2118 18.3292 26.0747 18.1261C25.6633 17.5267 25.2315 17.2676 24.5712 17.222C23.601 17.1558 22.9763 17.6638 22.9814 18.5121C22.9814 18.761 23.0169 18.9082 23.1185 19.1115C23.3318 19.5533 23.728 19.8175 24.9725 20.3558C27.2633 21.3413 28.2435 21.9915 28.8532 22.9158C29.5338 23.947 29.6862 25.5927 29.2239 26.8168C28.716 28.1476 27.4563 29.0517 25.6835 29.3515C25.135 29.448 23.8347 29.4327 23.2455 29.3261C21.9604 29.0975 20.7414 28.4626 19.9897 27.6296C19.695 27.3045 19.121 26.4562 19.1567 26.3952C19.1718 26.375 19.3039 26.2937 19.4512 26.2073C19.5934 26.1261 20.1319 25.8162 20.6398 25.5216L21.5592 24.9882L21.7522 25.2727C22.0214 25.6841 22.6105 26.248 22.9662 26.4358C23.987 26.9743 25.389 26.8981 26.0798 26.2785C26.3744 26.0092 26.4963 25.7298 26.4963 25.3185C26.4963 24.9476 26.4505 24.7851 26.2575 24.5057C26.0087 24.1502 25.5008 23.8505 24.0582 23.2257C22.4074 22.5146 21.6963 22.0727 21.0462 21.3717C20.6703 20.9655 20.3147 20.3152 20.1674 19.7717C20.0455 19.3197 20.015 18.187 20.1115 17.7298C20.4518 16.135 21.6557 15.0226 23.3928 14.6923C23.9567 14.5857 25.267 14.6263 25.8208 14.7635Z" fill="white"/>
</g>
<defs>
<clipPath id="clip0_1109_524">
<rect width="32" height="32" fill="white"/>
</clipPath>
</defs>
</svg>
