<svg width="20" height="20" viewBox="0 0 20 20" fill="none" xmlns="http://www.w3.org/2000/svg">
<path d="M10 13.5C15.175 13.5 19.375 11.9375 19.375 10C19.375 8.0625 15.175 6.5 10 6.5C4.825 6.5 0.625 8.0625 0.625 10C0.625 11.9375 4.825 13.5 10 13.5Z" stroke="#91D7E3" stroke-width="1.25" stroke-linecap="round" stroke-linejoin="round"/>
<path d="M6.9 11.75C9.4875 16.125 12.975 18.9 14.6875 17.9375C16.4 16.9625 15.6875 12.6375 13.1 8.25C10.5125 3.875 7.025 1.1 5.3125 2.0625C3.6 3.0375 4.3125 7.3625 6.9 11.75Z" stroke="#91D7E3" stroke-width="1.25" stroke-linecap="round" stroke-linejoin="round"/>
<path d="M6.9 8.25C4.3125 12.625 3.6 16.9625 5.3125 17.9375C7.025 18.9 10.5125 16.125 13.1 11.75C15.6875 7.375 16.4 3.0375 14.6875 2.0625C12.975 1.1 9.4875 3.875 6.9 8.25Z" stroke="#91D7E3" stroke-width="1.25" stroke-linecap="round" stroke-linejoin="round"/>
<path d="M10.625 10C10.625 10.1658 10.5592 10.3247 10.4419 10.4419C10.3247 10.5592 10.1658 10.625 10 10.625C9.83424 10.625 9.67527 10.5592 9.55806 10.4419C9.44085 10.3247 9.375 10.1658 9.375 10C9.375 9.83424 9.44085 9.67527 9.55806 9.55806C9.67527 9.44085 9.83424 9.375 10 9.375C10.1658 9.375 10.3247 9.44085 10.4419 9.55806C10.5592 9.67527 10.625 9.83424 10.625 10Z" stroke="#91D7E3" stroke-width="1.25" stroke-linecap="round" stroke-linejoin="round"/>
</svg>
