<svg width="20" height="20" viewBox="0 0 20 20" fill="none" xmlns="http://www.w3.org/2000/svg">
<g clip-path="url(#clip0_420_406)">
<path d="M4.29656 0.00678758C5.19437 0.0266959 6.02656 0.457794 6.80585 0.864704C6.84014 0.882383 6.87443 0.900062 6.90976 0.918277C7.10734 1.02295 7.26292 1.13911 7.43258 1.28601C7.66762 1.44147 7.84457 1.40787 8.10789 1.35583C8.30989 1.30959 8.51065 1.25893 8.71149 1.2079C10.237 0.848994 11.8933 0.914834 13.4282 1.16948C13.4764 1.17739 13.5245 1.18531 13.5742 1.19346C13.7762 1.22823 13.9729 1.26489 14.1684 1.32746C14.4834 1.4241 14.4834 1.4241 14.7934 1.34296C14.9066 1.2728 15.0132 1.19492 15.1202 1.11569C15.9314 0.51694 17.0841 -0.000983466 18.1078 0.0191129C18.1655 0.0199757 18.2233 0.0208384 18.2828 0.0217273C18.3255 0.0228366 18.3682 0.0239459 18.4122 0.0250888C18.5452 0.291488 18.6358 0.55294 18.7077 0.8408C18.7196 0.888129 18.7196 0.888129 18.7318 0.936415C18.9402 1.80194 18.8889 2.71422 18.6584 3.5688C18.6374 3.71046 18.6374 3.71046 18.7269 3.82577C18.7639 3.86521 18.8009 3.90465 18.839 3.94528C19.6818 4.91363 19.9989 6.15455 19.9999 7.4143C19.9999 7.44942 20 7.48455 20 7.52074C19.9974 9.31644 19.5597 11.0095 18.2749 12.3205C18.0376 12.557 17.7889 12.7542 17.5049 12.9331C17.4712 12.9563 17.4375 12.9795 17.4027 13.0035C16.9941 13.2716 16.5291 13.4355 16.0724 13.6024C16.0395 13.6144 16.0066 13.6264 15.9727 13.6388C15.2833 13.8828 14.5481 13.9703 13.8282 14.0804C13.8508 14.1158 13.8734 14.1512 13.8968 14.1877C13.9266 14.2345 13.9565 14.2813 13.9873 14.3295C14.0168 14.3758 14.0463 14.422 14.0768 14.4697C14.5693 15.2554 14.6203 16.0563 14.6179 16.9616C14.6184 17.0617 14.6189 17.1617 14.6196 17.2618C14.6211 17.5227 14.6216 17.7835 14.6218 18.0443C14.6223 18.4637 14.624 18.8831 14.6262 19.3024C14.6268 19.4483 14.6268 19.5942 14.6267 19.7401C14.627 19.8293 14.6274 19.9185 14.6277 20.0076C14.6275 20.048 14.6273 20.0883 14.6271 20.1299C14.6285 20.3319 14.6345 20.4969 14.7354 20.6778C14.967 20.8344 15.2286 20.8713 15.4994 20.9169C15.4994 20.9326 15.4994 20.9484 15.4994 20.9647C14.9364 20.9733 14.3733 20.9812 13.8102 20.9886C13.7456 20.9894 13.7456 20.9894 13.6797 20.9903C12.1027 21.0109 10.5258 21.0167 8.94865 21.0155C8.89609 21.0154 8.84352 21.0154 8.78937 21.0153C8.1451 21.0148 7.50084 21.0139 6.85659 21.0125C6.85659 20.9967 6.85659 20.9809 6.85659 20.9647C6.89173 20.96 6.92688 20.9553 6.96309 20.9505C7.33011 20.8975 7.33011 20.8975 7.62059 20.6778C7.66801 20.5354 7.67413 20.4429 7.67376 20.2943C7.67376 20.2455 7.67376 20.1967 7.67375 20.1464C7.67351 20.0938 7.67326 20.0412 7.67301 19.9871C7.67294 19.9331 7.67287 19.8792 7.6728 19.8237C7.67253 19.6512 7.67193 19.4788 7.67133 19.3064C7.67109 19.1895 7.67087 19.0727 7.67067 18.9559C7.67015 18.6694 7.66935 18.3828 7.66834 18.0962C7.63125 18.103 7.59416 18.1097 7.55595 18.1166C7.16221 18.1833 6.78109 18.2087 6.38206 18.2068C6.32337 18.2066 6.26468 18.2063 6.20421 18.2061C5.25358 18.1938 4.39304 17.9156 3.69312 17.2477C3.35107 16.8868 3.1385 16.4965 2.94403 16.0435C2.63593 15.3261 2.1995 14.7218 1.55628 14.2717C1.47928 14.2144 1.40268 14.1566 1.32648 14.0984C1.27432 14.059 1.27432 14.059 1.2211 14.0188C1.12361 13.9345 1.05248 13.8545 0.983277 13.7458C0.974324 13.6143 0.974324 13.6143 0.983277 13.5067C1.29155 13.2951 1.66163 13.3232 2.01849 13.3857C2.81193 13.5989 3.44489 14.1783 3.8692 14.8663C4.27904 15.5255 4.84379 15.9811 5.6047 16.1642C5.79092 16.1989 5.9752 16.2022 6.1642 16.2019C6.20561 16.2019 6.24702 16.2019 6.28968 16.2018C6.691 16.1949 7.04692 16.1105 7.42959 15.9927C7.5409 15.9605 7.65238 15.9288 7.76384 15.8971C7.76452 15.8658 7.7652 15.8345 7.7659 15.8022C7.79814 15.1846 8.08222 14.5618 8.52785 14.1282C8.46592 14.1175 8.46592 14.1175 8.40274 14.1065C6.71255 13.8091 5.13766 13.4331 3.89606 12.1681C3.86036 12.1323 3.82465 12.0965 3.78787 12.0596C2.55416 10.7491 2.27938 8.8302 2.30835 7.10056C2.34659 5.89243 2.7921 4.63318 3.65096 3.75891C3.72053 3.65438 3.72053 3.65438 3.67894 3.50512C3.65998 3.44824 3.64102 3.39136 3.62149 3.33275C3.29033 2.3193 3.40114 1.04186 3.84831 0.0728961C3.9531 -0.0320245 4.15571 0.00733501 4.29656 0.00678758Z" fill="black"/>
</g>
<defs>
<clipPath id="clip0_420_406">
<rect width="20" height="20" fill="white"/>
</clipPath>
</defs>
</svg>
