<svg width="20" height="20" viewBox="0 0 20 20" fill="none" xmlns="http://www.w3.org/2000/svg">
<g clip-path="url(#clip0_601_472)">
<path d="M10.0006 4.00031C7.33391 4.00031 5.66781 5.33313 5.00063 7.99984C6.00031 6.66688 7.16734 6.16703 8.50031 6.50031C9.26141 6.69 9.80531 7.24188 10.4077 7.85344C11.388 8.84828 12.5227 10 15.0006 10C17.6672 10 19.3334 8.66703 20.0006 5.99969C19.0006 7.33333 17.834 7.83344 16.5008 7.5C15.7398 7.31016 15.1966 6.75844 14.5934 6.14688C13.6138 5.15203 12.4794 4.00031 10.0006 4.00031ZM5.00063 10C2.33406 10 0.667813 11.333 0.00062561 14.0003C1.00052 12.6667 2.16708 12.1666 3.50031 12.5C4.26141 12.6898 4.80531 13.2416 5.40766 13.8531C6.38797 14.848 7.52266 15.9997 10.0006 15.9997C12.6672 15.9997 14.3334 14.6669 15.0006 12.0002C14.0006 13.3332 12.834 13.833 11.5008 13.4997C10.7398 13.31 10.1966 12.7581 9.59344 12.1466C8.61375 11.1517 7.47938 10 5.00063 10Z" fill="#38BDF8"/>
</g>
<defs>
<clipPath id="clip0_601_472">
<rect width="20" height="20" fill="white"/>
</clipPath>
</defs>
</svg>
