<svg width="32" height="32" viewBox="0 0 32 32" fill="none" xmlns="http://www.w3.org/2000/svg">
<g clip-path="url(#clip0_1103_1479)">
<mask id="mask0_1103_1479" style="mask-type:alpha" maskUnits="userSpaceOnUse" x="0" y="0" width="32" height="32">
<path fill-rule="evenodd" clip-rule="evenodd" d="M22.6918 31.7815C22.9465 31.8807 23.2188 31.9265 23.4919 31.916C23.765 31.9055 24.0331 31.839 24.2793 31.7205L30.8676 28.5502C31.2069 28.3869 31.4932 28.1311 31.6935 27.8123C31.8939 27.4934 32.0001 27.1245 32.0001 26.748V5.25222C32.0002 4.87563 31.8939 4.50666 31.6936 4.18779C31.4932 3.86891 31.2069 3.61307 30.8676 3.44972L24.2793 0.279975C23.9071 0.100851 23.4883 0.0418751 23.081 0.111209C22.6738 0.180543 22.2981 0.374758 22.0061 0.666975L9.39359 12.1735L3.90009 8.00322C3.65224 7.81516 3.34639 7.71975 3.03558 7.73354C2.72476 7.74733 2.42856 7.86945 2.19834 8.07872L0.43634 9.68147C0.299027 9.80636 0.189293 9.95854 0.114158 10.1283C0.0390232 10.298 0.000141572 10.4815 3.85889e-07 10.6671C-0.0001408 10.8528 0.0384616 11.0364 0.113338 11.2062C0.188215 11.376 0.297717 11.5284 0.43484 11.6535L5.19909 16L0.43509 20.3467C0.298042 20.4718 0.188605 20.6242 0.113775 20.794C0.0389449 20.9638 0.000367566 21.1474 0.000508738 21.3329C0.000649909 21.5185 0.0395065 21.702 0.114595 21.8717C0.189683 22.0414 0.299351 22.1936 0.43659 22.3185L2.19859 23.9212C2.42878 24.1305 2.72496 24.2527 3.03578 24.2665C3.3466 24.2804 3.65246 24.185 3.90034 23.997L9.39384 19.827L22.0063 31.3332C22.2015 31.5284 22.4348 31.681 22.6918 31.7815ZM24.0048 8.73572L14.4351 16L24.0051 23.2645L24.0048 8.73572Z" fill="white"/>
</mask>
<g mask="url(#mask0_1103_1479)">
<path d="M30.8679 3.45499L24.2744 0.279994C23.902 0.100641 23.4831 0.0415406 23.0756 0.110879C22.6681 0.180218 22.2923 0.374564 22.0002 0.666994L0.415658 20.3467C0.278507 20.4718 0.168978 20.6241 0.0940818 20.7939C0.0191855 20.9638 -0.0194279 21.1473 -0.0192867 21.333C-0.0191455 21.5186 0.0197472 21.7021 0.0949018 21.8718C0.170056 22.0415 0.279817 22.1936 0.417158 22.3185L2.18016 23.9212C2.41042 24.1308 2.7068 24.2531 3.01784 24.267C3.32888 24.2808 3.63495 24.1853 3.88291 23.997L29.8757 4.27824C30.7477 3.61674 32.0002 4.23874 32.0002 5.33324V5.25674C32.0002 4.88026 31.8939 4.51142 31.6936 4.19264C31.4933 3.87386 31.2071 3.61834 30.8679 3.45499Z" fill="#0065A9"/>
<g filter="url(#filter0_d_1103_1479)">
<path d="M30.8679 28.5452L24.2744 31.7197C23.9021 31.8991 23.4831 31.9583 23.0757 31.8891C22.6682 31.8198 22.2923 31.6256 22.0002 31.3332L0.415658 11.6532C0.278507 11.5282 0.168978 11.3759 0.0940818 11.206C0.0191855 11.0362 -0.0194279 10.8526 -0.0192867 10.667C-0.0191455 10.4814 0.0197472 10.2979 0.0949018 10.1282C0.170056 9.95848 0.279817 9.80633 0.417158 9.68148L2.18016 8.07873C2.41042 7.86916 2.7068 7.74684 3.01784 7.73301C3.32888 7.71917 3.63495 7.81469 3.88291 8.00298L29.8757 27.7215C30.7477 28.3832 32.0002 27.7612 32.0002 26.6667V26.7432C32.0002 27.1197 31.8939 27.4886 31.6936 27.8073C31.4933 28.1261 31.2071 28.3819 30.8679 28.5452Z" fill="#007ACC"/>
</g>
<g filter="url(#filter1_d_1103_1479)">
<path d="M24.2747 31.7205C23.9022 31.8995 23.4833 31.9584 23.0758 31.889C22.6684 31.8196 22.2925 31.6254 22.0002 31.3332C22.7382 32.0712 24.0002 31.5485 24.0002 30.5047V1.49497C24.0002 0.451223 22.7382 -0.0715272 22.0002 0.666723C22.2925 0.37452 22.6684 0.180315 23.0758 0.110945C23.4833 0.0415741 23.9022 0.100463 24.2747 0.279473L30.867 3.44997C31.2065 3.61321 31.4929 3.869 31.6934 4.18789C31.8939 4.50678 32.0003 4.8758 32.0002 5.25247V26.748C32.0003 27.1246 31.8939 27.4937 31.6934 27.8126C31.4929 28.1314 31.2065 28.3872 30.867 28.5505L24.2747 31.7205Z" fill="#1F9CF0"/>
</g>
<path opacity="0.25" fill-rule="evenodd" clip-rule="evenodd" d="M22.6727 31.7814C22.9273 31.8806 23.1996 31.9264 23.4726 31.9159C23.7457 31.9054 24.0137 31.8388 24.2599 31.7204L30.8482 28.5501C31.1875 28.3868 31.4738 28.1309 31.6742 27.812C31.8745 27.4932 31.9808 27.1242 31.9807 26.7476V5.2521C31.9808 4.87551 31.8745 4.50654 31.6742 4.18766C31.4738 3.86878 31.1875 3.61295 30.8482 3.4496L24.2599 0.279852C23.8877 0.100729 23.4689 0.041753 23.0616 0.111087C22.6544 0.180421 22.2787 0.374636 21.9867 0.666852L9.37418 12.1734L3.88068 8.00335C3.63283 7.81529 3.32699 7.71988 3.01617 7.73367C2.70535 7.74746 2.40915 7.86958 2.17893 8.07885L0.416931 9.6816C0.279653 9.80651 0.16995 9.95869 0.0948369 10.1284C0.0197241 10.2981 -0.0191455 10.4817 -0.0192867 10.6673C-0.0194279 10.8529 0.0191625 11.0365 0.094017 11.2063C0.168871 11.3761 0.278343 11.5285 0.415431 11.6536L5.17968 15.9999L0.415681 20.3464C0.278559 20.4715 0.169056 20.6238 0.0941799 20.7936C0.0193033 20.9635 -0.0192991 21.1471 -0.0191579 21.3327C-0.0190167 21.5183 0.0198649 21.7018 0.0949998 21.8716C0.170135 22.0413 0.279868 22.1935 0.417181 22.3184L2.17918 23.9211C2.40937 24.1304 2.70555 24.2526 3.01637 24.2664C3.32719 24.2802 3.63305 24.1849 3.88093 23.9969L9.37468 19.8266L21.9872 31.3331C22.1823 31.5282 22.4157 31.6808 22.6727 31.7814ZM23.9857 8.73535L14.4157 15.9999L23.9857 23.2641V8.73535Z" fill="url(#paint0_linear_1103_1479)"/>
</g>
</g>
<defs>
<filter id="filter0_d_1103_1479" x="-1.06104" y="6.68994" width="34.103" height="26.269" filterUnits="userSpaceOnUse" color-interpolation-filters="sRGB">
<feFlood flood-opacity="0" result="BackgroundImageFix"/>
<feColorMatrix in="SourceAlpha" type="matrix" values="0 0 0 0 0 0 0 0 0 0 0 0 0 0 0 0 0 0 127 0" result="hardAlpha"/>
<feOffset/>
<feGaussianBlur stdDeviation="0.520875"/>
<feColorMatrix type="matrix" values="0 0 0 0 0 0 0 0 0 0 0 0 0 0 0 0 0 0 0.25 0"/>
<feBlend mode="overlay" in2="BackgroundImageFix" result="effect1_dropShadow_1103_1479"/>
<feBlend mode="normal" in="SourceGraphic" in2="effect1_dropShadow_1103_1479" result="shape"/>
</filter>
<filter id="filter1_d_1103_1479" x="20.9585" y="-0.959108" width="12.0835" height="33.9182" filterUnits="userSpaceOnUse" color-interpolation-filters="sRGB">
<feFlood flood-opacity="0" result="BackgroundImageFix"/>
<feColorMatrix in="SourceAlpha" type="matrix" values="0 0 0 0 0 0 0 0 0 0 0 0 0 0 0 0 0 0 127 0" result="hardAlpha"/>
<feOffset/>
<feGaussianBlur stdDeviation="0.520875"/>
<feColorMatrix type="matrix" values="0 0 0 0 0 0 0 0 0 0 0 0 0 0 0 0 0 0 0.25 0"/>
<feBlend mode="overlay" in2="BackgroundImageFix" result="effect1_dropShadow_1103_1479"/>
<feBlend mode="normal" in="SourceGraphic" in2="effect1_dropShadow_1103_1479" result="shape"/>
</filter>
<linearGradient id="paint0_linear_1103_1479" x1="15.9807" y1="0.0823525" x2="15.9807" y2="31.9174" gradientUnits="userSpaceOnUse">
<stop stop-color="white"/>
<stop offset="1" stop-color="white" stop-opacity="0"/>
</linearGradient>
<clipPath id="clip0_1103_1479">
<rect width="32" height="32" fill="white"/>
</clipPath>
</defs>
</svg>
