<svg width="32" height="32" viewBox="0 0 32 32" fill="none" xmlns="http://www.w3.org/2000/svg">
<g clip-path="url(#clip0_1110_528)">
<path d="M24.5 0H7.5C3.35786 0 0 3.35786 0 7.5V24.5C0 28.6421 3.35786 32 7.5 32H24.5C28.6421 32 32 28.6421 32 24.5V7.5C32 3.35786 28.6421 0 24.5 0Z" fill="#FF6C37"/>
<path d="M21.1326 11.0765L14.8151 17.3941L13.0334 15.6126C19.2463 9.39989 19.8602 9.93889 21.1326 11.0765Z" fill="#EEEEEE"/>
<path d="M14.8152 17.5437C14.7702 17.5437 14.7403 17.5289 14.7103 17.4989L12.9138 15.7174C12.8996 15.7039 12.8883 15.6876 12.8806 15.6696C12.8729 15.6516 12.8689 15.6322 12.8689 15.6126C12.8689 15.593 12.8729 15.5736 12.8806 15.5556C12.8883 15.5376 12.8996 15.5214 12.9138 15.5079C19.2314 9.19012 19.8901 9.789 21.2226 10.9866C21.2526 11.0166 21.2674 11.0466 21.2674 11.0915C21.2674 11.1365 21.2526 11.1664 21.2226 11.1961L14.9049 17.4989C14.8901 17.5289 14.8451 17.5437 14.8152 17.5437ZM13.2432 15.6126L14.8152 17.1845L20.9082 11.0915C19.8004 10.1034 19.0518 9.804 13.2432 15.6126Z" fill="#FF6C37"/>
<path d="M16.6264 19.2056L14.9048 17.484L21.2224 11.1665C22.9142 12.873 20.384 15.6426 16.6264 19.2056Z" fill="#EEEEEE"/>
<path d="M16.6264 19.3554C16.5814 19.3554 16.5516 19.3404 16.5216 19.3104L14.8 17.5888C14.77 17.5589 14.77 17.5289 14.77 17.484C14.77 17.439 14.785 17.4091 14.815 17.3791L21.1325 11.0616C21.1461 11.0475 21.1623 11.0362 21.1803 11.0285C21.1984 11.0208 21.2177 11.0168 21.2373 11.0168C21.2569 11.0168 21.2763 11.0208 21.2943 11.0285C21.3123 11.0362 21.3286 11.0475 21.3421 11.0616C21.5333 11.2385 21.6843 11.4543 21.785 11.6945C21.8857 11.9346 21.9338 12.1936 21.926 12.4539C21.8961 14.1155 20.0098 16.2264 16.7461 19.3104C16.7013 19.3404 16.6563 19.3554 16.6264 19.3554ZM15.1144 17.484C16.0724 18.457 16.4768 18.8464 16.6264 18.996C19.1415 16.6008 21.5816 14.1455 21.5966 12.4539C21.6116 12.0646 21.462 11.6754 21.2074 11.3759L15.1144 17.484Z" fill="#FF6C37"/>
<path d="M13.0635 15.6575L14.336 16.93C14.3659 16.96 14.3659 16.99 14.336 17.0199C14.321 17.0349 14.321 17.0349 14.3061 17.0349L11.6711 17.6038C11.5365 17.6188 11.4167 17.5289 11.3867 17.3942C11.3717 17.3193 11.4017 17.2445 11.4467 17.1995L12.9736 15.6725C13.0036 15.6425 13.0485 15.6275 13.0635 15.6575Z" fill="#EEEEEE"/>
<path d="M11.6263 17.7535C11.4018 17.7535 11.2371 17.5737 11.2371 17.3491C11.2371 17.2445 11.2821 17.1396 11.3569 17.0647L12.8838 15.5377C12.9737 15.4628 13.0936 15.4628 13.1833 15.5377L14.4558 16.8102C14.5456 16.8851 14.5456 17.0198 14.4558 17.1096C14.4258 17.1396 14.3959 17.1546 14.3509 17.1696L11.7162 17.7385C11.6862 17.7385 11.6562 17.7535 11.6263 17.7535ZM13.0187 15.8221L11.5516 17.2892C11.5216 17.3192 11.5066 17.3641 11.5366 17.409C11.5516 17.454 11.5963 17.469 11.6413 17.454L14.1114 16.915L13.0187 15.8221Z" fill="#FF6C37"/>
<path d="M24.4711 7.57347C23.513 6.64535 21.971 6.67522 21.0427 7.64835C20.1146 8.62135 20.1446 10.1483 21.1176 11.0766C21.5017 11.4478 21.9979 11.6814 22.5287 11.741C23.0595 11.8006 23.5951 11.6828 24.052 11.406L22.3452 9.69922L24.4711 7.57347Z" fill="#EEEEEE"/>
<path d="M22.7944 11.9C21.3722 11.9 20.2195 10.7472 20.2195 9.325C20.2195 7.90275 21.3722 6.75 22.7944 6.75C23.4531 6.75 24.0969 7.0045 24.5759 7.46863C24.6059 7.49863 24.6209 7.52863 24.6209 7.57338C24.6209 7.61838 24.6059 7.64837 24.5759 7.67825L22.5549 9.69925L24.1417 11.2861C24.2017 11.3461 24.2017 11.4359 24.1417 11.4958L24.1119 11.5258C23.7226 11.7651 23.2585 11.9 22.7944 11.9ZM22.7944 7.0645C21.5369 7.0645 20.5189 8.08238 20.5339 9.34C20.5339 10.5975 21.5517 11.6155 22.8094 11.6006C23.1537 11.6006 23.498 11.5256 23.8124 11.361L22.2405 9.80412C22.2105 9.77412 22.1956 9.74413 22.1956 9.69925C22.1956 9.65425 22.2105 9.62437 22.2405 9.5945L24.2466 7.58838C23.8424 7.24413 23.3334 7.0645 22.7944 7.0645Z" fill="#FF6C37"/>
<path d="M24.516 7.61838L24.4861 7.58838L22.3452 9.69925L24.037 11.391C24.2017 11.2861 24.3662 11.1665 24.5011 11.0318C24.7279 10.8096 24.9084 10.5446 25.032 10.2522C25.1557 9.95973 25.22 9.64567 25.2214 9.32817C25.2228 9.01068 25.1612 8.69606 25.0401 8.40257C24.919 8.10907 24.7408 7.84252 24.516 7.61838Z" fill="#EEEEEE"/>
<path d="M24.0519 11.5556C24.0069 11.5556 23.9771 11.5406 23.9471 11.5106L22.2404 9.80402C22.2104 9.77402 22.1956 9.74414 22.1956 9.69927C22.1956 9.65427 22.2104 9.62427 22.2404 9.59439L24.3662 7.46877C24.4262 7.40877 24.5159 7.40877 24.5758 7.46877L24.6208 7.49877C25.6238 8.50164 25.6238 10.1185 24.6358 11.1366C24.4861 11.2863 24.3213 11.421 24.1417 11.5258C24.0968 11.5408 24.0669 11.5556 24.0519 11.5556ZM22.5548 9.69939L24.0669 11.2114C24.1867 11.1366 24.3064 11.0318 24.3962 10.9419C25.2496 10.0885 25.2944 8.69639 24.4711 7.79814L22.5548 9.69939Z" fill="#FF6C37"/>
<path d="M21.3872 11.3459C21.2144 11.1733 20.9801 11.0764 20.7359 11.0764C20.4917 11.0764 20.2575 11.1733 20.0847 11.3459L14.4407 16.9899L15.3839 17.933L21.3572 12.6934C21.7464 12.3639 21.7763 11.78 21.447 11.3909C21.417 11.3759 21.402 11.3609 21.3872 11.3459Z" fill="#EEEEEE"/>
<path d="M15.3689 18.0827C15.3241 18.0827 15.2941 18.0677 15.2641 18.0379L14.3209 17.0947C14.3068 17.0812 14.2955 17.0649 14.2878 17.0469C14.2801 17.0289 14.2761 17.0095 14.2761 16.9899C14.2761 16.9703 14.2801 16.9509 14.2878 16.9329C14.2955 16.9149 14.3068 16.8986 14.3209 16.8851L19.9648 11.2411C20.0639 11.1415 20.1817 11.0624 20.3114 11.0084C20.4412 10.9545 20.5803 10.9267 20.7209 10.9267C20.8614 10.9267 21.0005 10.9545 21.1303 11.0084C21.26 11.0624 21.3778 11.1415 21.4769 11.2411C21.5766 11.3402 21.6556 11.458 21.7096 11.5878C21.7636 11.7175 21.7913 11.8566 21.7913 11.9972C21.7913 12.1377 21.7636 12.2768 21.7096 12.4066C21.6556 12.5363 21.5766 12.6541 21.4769 12.7532L21.4321 12.7981L15.4587 18.0379C15.4438 18.0678 15.4138 18.0827 15.3689 18.0827ZM14.6503 16.9899L15.3839 17.7235L21.2524 12.5735C21.5817 12.304 21.6117 11.81 21.3422 11.4807C21.0727 11.1515 20.5787 11.1215 20.2493 11.3907C20.2344 11.4057 20.2194 11.4207 20.1894 11.4357L14.6503 16.9899Z" fill="#FF6C37"/>
<path d="M10.1142 23.4125C10.0542 23.4424 10.0243 23.5023 10.0392 23.5621L10.2938 24.6402C10.3538 24.7898 10.2638 24.9695 10.0992 25.0144C9.97942 25.0593 9.8448 25.0144 9.76992 24.9247L8.12305 23.2928L13.4975 17.9183L15.3539 17.9482L16.6114 19.2058C16.312 19.4603 14.5005 21.2118 10.1142 23.4125Z" fill="#EEEEEE"/>
<path d="M9.99454 25.1639C9.87479 25.1639 9.75504 25.119 9.68017 25.0292L8.04829 23.3974C8.01829 23.3675 8.00342 23.3375 8.00342 23.2926C8.00342 23.2477 8.01842 23.2177 8.04842 23.1877L13.4228 17.8134C13.4528 17.7834 13.4977 17.7684 13.5277 17.7684L15.384 17.7984C15.4289 17.7984 15.4588 17.8134 15.4887 17.8432L16.7463 19.1007C16.7763 19.1307 16.7912 19.1756 16.7912 19.2205C16.7912 19.2655 16.7763 19.2954 16.7313 19.3254L16.6265 19.4152C15.0397 20.8074 12.8838 22.1997 10.204 23.5321L10.4587 24.595C10.5035 24.7896 10.4137 24.9992 10.234 25.104C10.1442 25.1489 10.0694 25.1639 9.99454 25.1639ZM8.34767 23.2926L9.88979 24.8196C9.93454 24.8945 10.0244 24.9244 10.0993 24.8795C10.1742 24.8346 10.2042 24.7447 10.1593 24.6699L9.90479 23.592C9.87479 23.4572 9.93454 23.3375 10.0544 23.2776C12.7042 21.9452 14.845 20.568 16.4169 19.2056L15.3092 18.0977L13.5875 18.0677L8.34767 23.2926Z" fill="#FF6C37"/>
<path d="M6.85057 24.5801L8.13807 23.2926L10.0543 25.2089L7.00032 24.9994C6.86557 24.9844 6.77569 24.8646 6.79069 24.7297C6.79069 24.6699 6.80557 24.61 6.85057 24.5801Z" fill="#EEEEEE"/>
<path d="M10.0544 25.3436L6.98541 25.134C6.76078 25.119 6.61103 24.9245 6.62603 24.6999C6.64103 24.61 6.67103 24.5203 6.74591 24.4604L8.03341 23.1729C8.04692 23.1587 8.06317 23.1474 8.08117 23.1397C8.09918 23.132 8.11857 23.128 8.13816 23.128C8.15775 23.128 8.17714 23.132 8.19514 23.1397C8.21315 23.1474 8.2294 23.1587 8.24291 23.1729L10.1592 25.0891C10.2042 25.134 10.2192 25.1939 10.1892 25.2539C10.1592 25.3137 10.1142 25.3436 10.0544 25.3436ZM8.13816 23.5023L6.95553 24.6849C6.91053 24.7149 6.91053 24.7898 6.95553 24.8196C6.97053 24.8346 6.98553 24.8496 7.01541 24.8496L9.66516 25.0293L8.13816 23.5023ZM12.9737 18.6069C12.8838 18.6069 12.8239 18.532 12.8239 18.4571C12.8239 18.4123 12.8389 18.3824 12.8689 18.3524L14.321 16.9003C14.3345 16.886 14.3508 16.8747 14.3688 16.867C14.3868 16.8593 14.4062 16.8553 14.4258 16.8553C14.4455 16.8553 14.4649 16.8593 14.4829 16.867C14.5009 16.8747 14.5171 16.886 14.5307 16.9003L15.4738 17.8434C15.5187 17.8883 15.5337 17.9331 15.5187 17.9931C15.5037 18.038 15.4588 18.0829 15.399 18.0979L13.0037 18.6069H12.9737ZM14.4258 17.2146L13.4378 18.2028L15.0545 17.8583L14.4258 17.2146Z" fill="#FF6C37"/>
<path d="M15.354 17.948L13.7073 18.3074C13.5875 18.3374 13.4677 18.2625 13.4378 18.1428C13.4228 18.0679 13.4378 17.993 13.4977 17.9331L14.4108 17.0199L15.354 17.948Z" fill="#EEEEEE"/>
<path d="M13.6772 18.4571C13.628 18.4576 13.5791 18.4483 13.5334 18.4296C13.4878 18.411 13.4463 18.3835 13.4115 18.3486C13.3766 18.3138 13.3491 18.2723 13.3305 18.2267C13.3118 18.181 13.3025 18.1321 13.303 18.0829C13.303 17.9781 13.3479 17.8882 13.4077 17.8135L14.321 16.9002C14.3345 16.886 14.3508 16.8747 14.3688 16.867C14.3868 16.8593 14.4062 16.8553 14.4258 16.8553C14.4454 16.8553 14.4648 16.8593 14.4828 16.867C14.5009 16.8747 14.5171 16.886 14.5306 16.9002L15.4737 17.8434C15.5186 17.8882 15.5336 17.9331 15.5186 17.9931C15.5036 18.038 15.4587 18.0829 15.399 18.0979L13.7521 18.4571H13.6772ZM14.4257 17.2146L13.6174 18.023C13.5875 18.053 13.5875 18.0829 13.6024 18.1129C13.6174 18.1428 13.6473 18.1577 13.6922 18.1577L15.0695 17.8582L14.4257 17.2146ZM24.531 9.05536C24.5011 8.96561 24.3962 8.92074 24.3064 8.95074C24.2166 8.98049 24.1717 9.08536 24.2017 9.17524C24.2017 9.19024 24.2166 9.20524 24.2166 9.22011C24.3064 9.39986 24.2766 9.62436 24.1567 9.78899C24.0969 9.86399 24.1119 9.96874 24.1717 10.0286C24.2466 10.0884 24.3514 10.0736 24.4112 9.99861C24.6359 9.71411 24.6807 9.35486 24.531 9.05536Z" fill="#FF6C37"/>
</g>
<defs>
<clipPath id="clip0_1110_528">
<rect width="32" height="32" fill="white"/>
</clipPath>
</defs>
</svg>
