<svg width="20" height="20" viewBox="0 0 20 20" fill="none" xmlns="http://www.w3.org/2000/svg">
<path d="M2.3414 4.33C2.30437 3.26515 3.1339 2.28328 4.25531 2.28328H15.7459C16.8673 2.28328 17.6969 3.26515 17.6598 4.33C17.6242 5.35281 17.6705 6.67781 18.0039 7.75812C18.3384 8.84187 18.9025 9.52672 19.8264 9.61484V10.6128C18.9025 10.7009 18.3384 11.3858 18.0039 12.4695C17.6705 13.5498 17.6242 14.8748 17.6598 15.8977C17.6969 16.9625 16.8673 17.9442 15.7459 17.9442H4.25531C3.1339 17.9442 2.30437 16.9623 2.3414 15.8977C2.37703 14.8748 2.33078 13.5498 1.99719 12.4695C1.66281 11.3859 1.09719 10.7009 0.173279 10.6128V9.61484C1.09719 9.52687 1.66281 8.84187 1.99719 7.75812C2.33078 6.67781 2.37687 5.35281 2.3414 4.33Z" fill="url(#paint0_linear_601_480)"/>
<g filter="url(#filter0_d_601_480)">
<path d="M10.4859 14.3338C12.3014 14.3338 13.3954 13.4449 13.3954 11.9787C13.3954 10.8704 12.6148 10.0681 11.4557 9.94108V9.8949C12.3073 9.75637 12.9755 8.96558 12.9755 8.08243C12.9755 6.82408 11.9821 6.00438 10.4682 6.00438H7.06194V14.3338H10.4859ZM8.38659 7.06072H10.1489C11.1069 7.06072 11.6509 7.48786 11.6509 8.26134C11.6509 9.0868 11.0181 9.54856 9.87091 9.54856H8.38659V7.06072ZM8.38659 13.2775V10.5356H10.137C11.3907 10.5356 12.0412 10.9974 12.0412 11.8979C12.0412 12.7983 11.4084 13.2775 10.2139 13.2775H8.38659Z" fill="url(#paint1_linear_601_480)"/>
</g>
<defs>
<filter id="filter0_d_601_480" x="6.44779" y="5.54377" width="7.56172" height="9.55771" filterUnits="userSpaceOnUse" color-interpolation-filters="sRGB">
<feFlood flood-opacity="0" result="BackgroundImageFix"/>
<feColorMatrix in="SourceAlpha" type="matrix" values="0 0 0 0 0 0 0 0 0 0 0 0 0 0 0 0 0 0 127 0" result="hardAlpha"/>
<feOffset dy="0.153537"/>
<feGaussianBlur stdDeviation="0.307075"/>
<feColorMatrix type="matrix" values="0 0 0 0 0 0 0 0 0 0 0 0 0 0 0 0 0 0 0.15 0"/>
<feBlend mode="normal" in2="BackgroundImageFix" result="effect1_dropShadow_601_480"/>
<feBlend mode="normal" in="SourceGraphic" in2="effect1_dropShadow_601_480" result="shape"/>
</filter>
<linearGradient id="paint0_linear_601_480" x1="3.09368" y1="2.69775" x2="20.2669" y2="16.33" gradientUnits="userSpaceOnUse">
<stop stop-color="#9013FE"/>
<stop offset="1" stop-color="#6610F2"/>
</linearGradient>
<linearGradient id="paint1_linear_601_480" x1="7.6612" y1="6.55251" x2="11.4996" y2="13.0445" gradientUnits="userSpaceOnUse">
<stop stop-color="white"/>
<stop offset="1" stop-color="#F1E5FC"/>
</linearGradient>
</defs>
</svg>
