<svg width="18" height="20" viewBox="0 0 18 20" fill="none" xmlns="http://www.w3.org/2000/svg">
<g clip-path="url(#clip0_601_474)">
<path d="M17.778 5.87431C17.7778 5.5384 17.706 5.24153 17.5606 4.98674C17.418 4.73618 17.2042 4.52618 16.9175 4.36014C14.5508 2.99549 12.1817 1.635 9.81583 0.268959C9.17799 -0.0993052 8.55958 -0.0859024 7.92639 0.287709C6.98437 0.843264 2.26805 3.54535 0.862568 4.35938C0.283818 4.69445 0.00215174 5.20722 0.00201285 5.87361C0.00111008 8.61813 0.00201285 11.3625 0.00111008 14.107C0.00111008 14.4355 0.0700684 14.7267 0.208957 14.9776C0.351735 15.2358 0.568471 15.4515 0.861805 15.6213C2.26736 16.4353 6.98431 19.1373 7.92611 19.6929C8.55951 20.0667 9.17799 20.0801 9.81604 19.7117C12.182 18.3456 14.5512 16.9851 16.9183 15.6205C17.2116 15.4508 17.4283 15.2349 17.5711 14.9769C17.7098 14.726 17.7789 14.4349 17.7789 14.1062C17.7789 14.1062 17.7789 8.61882 17.778 5.87431Z" fill="#649AD2"/>
<path d="M8.91722 9.96361L0.208889 14.9776C0.351736 15.2358 0.568472 15.4515 0.861806 15.6213C2.26736 16.4353 6.98431 19.1373 7.92611 19.6929C8.55951 20.0667 9.17799 20.0801 9.81604 19.7117C12.182 18.3456 14.5512 16.9851 16.9183 15.6205C17.2116 15.4508 17.4283 15.2349 17.5711 14.9769L8.91722 9.96361Z" fill="#004482"/>
<path d="M6.33792 11.4488C6.84465 12.3334 7.79722 12.9301 8.89 12.9301C9.98951 12.9301 10.9475 12.3259 11.4517 11.4317L8.91722 9.96361L6.33792 11.4488Z" fill="#1A4674"/>
<path d="M17.778 5.8743C17.7778 5.5384 17.706 5.24152 17.5606 4.98673L8.91722 9.96361L17.5711 14.9769C17.7098 14.726 17.7787 14.4349 17.7789 14.1062C17.7789 14.1062 17.7789 8.61882 17.778 5.8743Z" fill="#01589C"/>
<path d="M17.3022 10.3219H16.6259V10.9983H15.9495V10.3219H15.2733V9.64583H15.9495V8.96958H16.6259V9.64583H17.3022V10.3219ZM8.89 4.08659C11.0522 4.08659 12.9426 5.24909 13.9712 6.98305L14.0021 7.03576L11.4326 8.51541C10.9233 7.63979 9.97576 7.05055 8.89 7.05055C7.26639 7.05055 5.95021 8.36673 5.95021 9.99027C5.94967 10.502 6.08335 11.0049 6.33792 11.4488C6.84465 12.3334 7.79722 12.9301 8.89 12.9301C9.97743 12.9301 10.9265 12.3391 11.4349 11.4611L11.4517 11.4317L14.0174 12.9183C13.0001 14.6958 11.0849 15.894 8.89 15.894C6.6991 15.894 4.78694 14.7006 3.76819 12.9283C3.27083 12.0631 2.98625 11.0599 2.98625 9.99027C2.98625 6.72986 5.62938 4.08659 8.89 4.08659ZM14.1584 8.96951V9.64576H14.8346V10.3219H14.1584V10.9983H13.4822V10.3219H12.8059V9.64583H13.4822V8.96958L14.1584 8.96951Z" fill="white"/>
</g>
<defs>
<clipPath id="clip0_601_474">
<rect width="17.78" height="20" fill="white"/>
</clipPath>
</defs>
</svg>
