<svg width="20" height="20" viewBox="0 0 20 20" fill="none" xmlns="http://www.w3.org/2000/svg">
<g clip-path="url(#clip0_1014_1237)">
<path d="M9.23828 0.355471C8.38281 0.464846 7.66016 0.824221 7.16016 1.39063C7.01562 1.55469 6.85156 1.69141 6.70312 1.76953C6.57812 1.83594 6.33594 2.02344 6.16406 2.17969C5.62891 2.6836 5.25 3.36328 5.08984 4.10547C4.98828 4.57813 4.99219 5.85938 5.09375 6.3125C5.16406 6.625 5.16406 6.63672 5.09375 6.83985C4.98438 7.15235 4.99609 7.9375 5.11328 8.26172C5.27344 8.70313 5.51953 8.9961 5.88281 9.1836C6.01953 9.25 6.03516 9.28125 6.12109 9.57813C6.32031 10.2617 6.58203 10.7891 6.96094 11.2617L7.1875 11.543V12.1914C7.1875 12.9141 7.16797 13.0039 6.94922 13.3203C6.71875 13.6523 6.19141 14.0547 5.78906 14.2031C5.6875 14.2422 5.5625 14.3047 5.50781 14.3438C5.28906 14.5 4.55078 14.7422 2.94922 15.1797C1.46094 15.5898 0.648438 16.4141 0.40625 17.7656C0.375 17.9531 0.335938 18.3906 0.324219 18.7383L0.300781 19.375H0.53125C0.949219 19.375 0.921875 19.418 0.949219 18.6992C0.976562 17.9258 1.05078 17.543 1.25391 17.1133C1.50781 16.5742 1.96875 16.1836 2.69531 15.8984C2.8125 15.8516 3.21094 15.7344 3.57422 15.6406C4.29297 15.4531 5.08984 15.2031 5.42578 15.0547C5.53906 15.0039 5.64062 14.9609 5.64453 14.9609C5.64844 14.9609 5.8125 15.1602 6.00391 15.3984C6.43359 15.9375 7.07422 16.5625 7.59766 16.9492C7.8125 17.1094 8.06641 17.3008 8.16016 17.3711C8.37109 17.5273 8.51953 17.5391 8.65234 17.4023C8.70703 17.3516 8.75 17.2852 8.75 17.2578C8.75 17.168 8.81641 17.2852 8.92578 17.5625L9.03125 17.8398L8.89062 18.5781C8.8125 18.9844 8.75 19.3594 8.75 19.4063C8.75 19.5352 8.91797 19.6875 9.0625 19.6875C9.26562 19.6875 9.3125 19.5977 9.44922 18.9023C9.51953 18.5508 9.58594 18.2305 9.59375 18.1914C9.61328 18.1289 9.66016 18.125 9.99219 18.1328L10.3672 18.1445L10.5078 18.8438C10.625 19.4258 10.6641 19.5547 10.7383 19.6133C10.8555 19.7109 10.9805 19.707 11.1094 19.6055C11.2422 19.5 11.2422 19.4336 11.0742 18.5625L10.9375 17.8477L11.0586 17.5352L11.1797 17.2188L11.3086 17.3594C11.4922 17.5625 11.5898 17.5469 12.0312 17.25C12.875 16.6797 13.7656 15.8125 14.3086 15.0391C14.3633 14.9609 14.375 14.957 14.4844 15.0156C14.7031 15.1289 15.6484 15.4336 16.3281 15.6133C17.457 15.9063 17.9062 16.1094 18.3242 16.5234C18.8516 17.043 19.0625 17.7539 19.0625 19.0156C19.0625 19.4727 19.0664 19.5 19.1602 19.5898C19.3359 19.7695 19.6094 19.6836 19.6719 19.4297C19.6875 19.3711 19.6875 19.0391 19.6758 18.6953C19.6328 17.4219 19.3555 16.6445 18.7461 16.0742C18.2188 15.5781 17.7539 15.3633 16.4844 15.0195C14.5742 14.5078 13.3008 13.8281 12.9219 13.1211C12.8398 12.9609 12.832 12.8945 12.8203 12.2539L12.8047 11.5586L12.9414 11.3945C13.3867 10.8516 13.6602 10.2773 13.9297 9.33203C13.9375 9.30078 14.0195 9.23828 14.1094 9.19922C14.1992 9.16016 14.3555 9.04297 14.457 8.94531C14.8203 8.58203 14.9805 8.08985 14.9492 7.44141C14.9375 7.22266 14.9023 6.97266 14.8672 6.875C14.8047 6.70703 14.8047 6.67969 14.8906 6.26953C15.0117 5.6836 15.0195 4.25781 14.9062 3.65235C14.5352 1.66406 13.2227 0.589846 10.8828 0.355471C10.3906 0.30469 9.63281 0.308596 9.23828 0.355471ZM11.2695 1.03125C13.0898 1.33594 14.0664 2.26563 14.3164 3.92578C14.4062 4.53516 14.375 5.8711 14.2656 6.17188C14.2383 6.24219 14.2305 6.24219 14.1055 6.1836C13.9102 6.08594 13.8164 5.90625 13.5625 5.14844C13.2148 4.11328 13.0234 3.82031 12.5469 3.58594C12.2891 3.45703 12.2812 3.45703 11.7578 3.46094C11.2852 3.46485 11.1719 3.48047 10.6836 3.60938C10.3828 3.6875 10.0781 3.75 10 3.75C9.92578 3.75 9.61719 3.6875 9.31641 3.60938C8.33594 3.36328 7.74609 3.38281 7.30469 3.67969C6.92188 3.9336 6.76953 4.1875 6.46484 5.07422C6.34375 5.42578 6.21094 5.77735 6.17188 5.85547C6.08984 6.01953 5.91406 6.19141 5.79297 6.22656C5.71875 6.25 5.70312 6.23438 5.66406 6.10547C5.59375 5.85156 5.57031 5.00781 5.62109 4.58985C5.76172 3.48438 6.30859 2.66797 7.21094 2.21485C7.33594 2.15235 7.44531 2.0586 7.49609 1.97656C7.625 1.76953 8.02734 1.41797 8.27344 1.29297C8.83203 1.01563 9.30469 0.933596 10.2344 0.957033C10.6094 0.964846 11.0781 1 11.2695 1.03125ZM9.23828 4.23828C9.53906 4.3125 9.88281 4.375 10 4.375C10.1211 4.375 10.457 4.3125 10.7617 4.23438C11.2148 4.11719 11.3828 4.09375 11.7383 4.08594C12.207 4.08203 12.3359 4.1211 12.5273 4.32813C12.6758 4.48828 12.7461 4.64844 12.9844 5.36719C13.1055 5.72656 13.2578 6.11719 13.3203 6.23438C13.4727 6.4961 13.75 6.74219 13.9609 6.80469C14.0508 6.82813 14.1523 6.875 14.1875 6.90625C14.3594 7.05078 14.3828 7.82422 14.2227 8.1836C14.0898 8.48438 13.8398 8.71094 13.6367 8.71094C13.4688 8.71094 13.3672 8.86719 13.2656 9.29688C12.9609 10.5898 12.2773 11.4258 11.0352 12.0313C10.5938 12.2461 9.65625 12.2852 9.10547 12.1133C8.76562 12.0078 7.83594 11.418 7.79297 11.2852C7.77734 11.2422 7.71484 11.1758 7.65234 11.1367C7.32422 10.9375 6.89062 10.1094 6.66016 9.24219C6.60547 9.05078 6.53906 8.86719 6.50391 8.82813C6.46875 8.78906 6.35938 8.73438 6.25781 8.70703C6.01562 8.64063 5.78516 8.40625 5.68359 8.125C5.625 7.95703 5.60547 7.8125 5.60547 7.47266C5.60547 6.95703 5.625 6.92188 5.98047 6.82031C6.25 6.7461 6.51172 6.52344 6.67969 6.23438C6.74219 6.11719 6.89453 5.72656 7.01562 5.36719C7.24219 4.6836 7.30469 4.53906 7.42969 4.37891C7.70703 4.01953 8.22266 3.98047 9.23828 4.23828ZM8.23828 12.3242C8.69922 12.6523 9.07031 12.7656 9.76562 12.8008C10.6602 12.8438 11.1484 12.7266 11.7773 12.3281L12.168 12.082L12.1914 12.5742C12.2109 13.0039 12.2266 13.0977 12.3242 13.3125L12.4336 13.5586L12.1445 13.8516C11.7734 14.2305 11.4648 14.4492 11.0078 14.668C10.5234 14.8984 10.0508 15.0117 9.80859 14.957C9.31641 14.8516 8.83984 14.6484 8.41797 14.3633C8.15234 14.1836 7.57812 13.6445 7.57812 13.5703C7.57812 13.5469 7.625 13.4219 7.68359 13.2969C7.77734 13.0938 7.79297 13.0078 7.80469 12.5703L7.82031 12.0742L7.9375 12.1328C8.00391 12.168 8.13672 12.2539 8.23828 12.3242ZM8.01172 14.8438C8.33203 15.0703 8.89062 15.3555 9.20703 15.457C9.32031 15.4922 9.41016 15.5352 9.40625 15.5508C9.38281 15.6172 8.77734 16.3281 8.74609 16.3281C8.72656 16.3281 8.65234 16.4258 8.57422 16.543C8.5 16.6602 8.42578 16.7578 8.41016 16.7578C8.32422 16.7578 7.56641 16.1211 7.125 15.6836C6.67188 15.2344 6.21875 14.7031 6.25391 14.6719C6.26172 14.6641 6.375 14.5977 6.50391 14.5195C6.63281 14.4375 6.82422 14.3047 6.93359 14.2227L7.125 14.0664L7.42578 14.3516C7.58984 14.5117 7.85156 14.7305 8.01172 14.8438ZM13.0938 14.2383C13.2227 14.3359 13.4297 14.4766 13.5586 14.5547L13.7852 14.6953L13.6016 14.9375C13.1953 15.4727 12.4414 16.1836 11.8281 16.6172L11.5664 16.8008L11.4258 16.582C11.3477 16.4609 11.2617 16.3555 11.2344 16.3438C11.1875 16.3242 10.5469 15.5703 10.5469 15.5352C10.5469 15.5234 10.6055 15.5 10.6758 15.4883C10.9141 15.4336 11.4648 15.1719 11.8086 14.9492C12 14.8242 12.3047 14.5781 12.4922 14.3945C12.6797 14.2148 12.8398 14.0625 12.8477 14.0625C12.8555 14.0625 12.9648 14.1406 13.0938 14.2383ZM10.3438 16.2109C10.543 16.4453 10.7031 16.6523 10.7031 16.668C10.7031 16.6836 10.6328 16.8789 10.543 17.0977L10.3828 17.5H9.98438H9.58203L9.42188 17.0859C9.28516 16.7422 9.26562 16.6641 9.30469 16.6055C9.35156 16.543 9.97656 15.7852 9.98438 15.7813C9.98438 15.7813 10.1484 15.9727 10.3438 16.2109Z" fill="white"/>
</g>
<defs>
<clipPath id="clip0_1014_1237">
<rect width="20" height="20" fill="white"/>
</clipPath>
</defs>
</svg>
