<svg width="20" height="20" viewBox="0 0 20 20" fill="none" xmlns="http://www.w3.org/2000/svg">
<path d="M3.68875 17.0006L2.285 1.25H17.715L16.3094 16.9981L9.99062 18.75L3.68875 17.0006Z" fill="#1572B6"/>
<path d="M10 17.4112L15.1063 15.9956L16.3075 2.53812H10V17.4112Z" fill="#33A9DC"/>
<path d="M10 8.24437H12.5563L12.7325 6.26625H10V4.33437H14.8438L14.7975 4.8525L14.3231 10.1762H10V8.24437Z" fill="white"/>
<path d="M10.0119 13.2613L10.0031 13.2638L7.85187 12.6825L7.71438 11.1419H5.775L6.04562 14.175L10.0025 15.2738L10.0119 15.2713V13.2613Z" fill="#EBEBEB"/>
<path d="M12.3919 10.0944L12.1594 12.6813L10.005 13.2625V15.2725L13.965 14.175L13.9944 13.8488L14.33 10.0944H12.3919Z" fill="white"/>
<path d="M10.0069 4.33437V6.26625H5.34062L5.30187 5.83187L5.21375 4.8525L5.1675 4.33437H10.0069ZM10 8.24437V10.1762H7.87562L7.83687 9.74187L7.74937 8.7625L7.70312 8.24437H10Z" fill="#EBEBEB"/>
</svg>
