<svg width="20" height="20" viewBox="0 0 20 20" fill="none" xmlns="http://www.w3.org/2000/svg">
<path d="M3.68875 17.0006L2.28437 1.25H17.7156L16.3094 16.9981L9.99062 18.75L3.68875 17.0006Z" fill="#E44F26"/>
<path d="M10 17.4112L15.1063 15.9956L16.3075 2.53812H10V17.4112Z" fill="#F1662A"/>
<path d="M10 8.37938H7.44375L7.2675 6.40125H10V4.46938H5.15625L5.2025 4.98813L5.67688 10.3113H10V8.37938ZM10 13.3963L9.99125 13.3988L7.84 12.8181L7.7025 11.2775H5.76312L6.03375 14.31L9.99125 15.4087L10 15.4063V13.3963Z" fill="#EBEBEB"/>
<path d="M9.99313 8.37938V10.3113H12.3719L12.1481 12.8169L9.99313 13.3981V15.4081L13.9538 14.31L13.9825 13.9838L14.4363 8.89813L14.4838 8.37938H9.99313ZM9.99313 4.46938V6.40125H14.6594L14.6981 5.9675L14.7863 4.98813L14.8325 4.46938H9.99313Z" fill="white"/>
</svg>
