<svg width="20" height="20" viewBox="0 0 20 20" fill="none" xmlns="http://www.w3.org/2000/svg">
<g clip-path="url(#clip0_420_257)">
<path d="M5.38015 0.0134927C5.42115 0.0133203 5.46215 0.013148 5.5044 0.0129704C5.64112 0.0124693 5.77784 0.0123791 5.91456 0.0122923C6.01288 0.0120236 6.11121 0.0117321 6.20954 0.0114195C6.47628 0.0106599 6.74302 0.0102845 7.00977 0.0100266C7.17672 0.00985618 7.34366 0.00961798 7.51061 0.00935915C8.0338 0.00856613 8.55698 0.00800524 9.08017 0.00778107C9.6825 0.00752152 10.2848 0.00650518 10.8871 0.00482233C11.3537 0.00356441 11.8203 0.00298288 12.2868 0.00290553C12.565 0.00284499 12.8432 0.00250774 13.1214 0.00146565C13.3834 0.000502921 13.6455 0.00038768 13.9076 0.000893581C14.0032 0.000937927 14.0988 0.000690963 14.1944 0.000112818C15.6644 -0.00824851 16.8754 0.448198 18.0318 1.35596C18.0929 1.40142 18.154 1.44689 18.217 1.49374C19.2699 2.47504 19.9731 3.88767 20.0338 5.32991C20.0387 5.54713 20.0384 5.76416 20.0372 5.98142C20.0375 6.07933 20.0379 6.17724 20.0384 6.27515C20.0394 6.53765 20.039 6.80014 20.0383 7.06265C20.0377 7.3395 20.0383 7.61634 20.0386 7.89319C20.039 8.3578 20.0385 8.8224 20.0374 9.28701C20.0361 9.82146 20.0365 10.3559 20.0378 10.8904C20.0389 11.3521 20.039 11.8139 20.0384 12.2757C20.038 12.5502 20.038 12.8247 20.0388 13.0993C20.0394 13.3576 20.0389 13.6158 20.0376 13.8741C20.0373 13.968 20.0374 14.0618 20.0379 14.1557C20.0445 15.4746 19.6971 16.6519 18.9032 17.7158C18.8422 17.7982 18.8422 17.7982 18.78 17.8822C17.8886 19.0277 16.5009 19.7764 15.0688 19.9784C14.9288 19.9837 14.7887 19.9862 14.6486 19.9865C14.6076 19.9867 14.5666 19.9869 14.5244 19.987C14.3876 19.9875 14.2509 19.9876 14.1142 19.9877C14.0159 19.988 13.9175 19.9883 13.8192 19.9886C13.5525 19.9893 13.2857 19.9897 13.019 19.99C12.852 19.9901 12.6851 19.9904 12.5181 19.9906C11.995 19.9914 11.4718 19.992 10.9486 19.9922C10.3463 19.9925 9.74394 19.9935 9.14161 19.9952C8.67504 19.9964 8.20848 19.997 7.74191 19.9971C7.46373 19.9972 7.18557 19.9975 6.9074 19.9985C6.64531 19.9995 6.38324 19.9996 6.12115 19.9991C6.02556 19.9991 5.92996 19.9993 5.83437 19.9999C4.36128 20.0083 2.96059 19.5556 1.88101 18.5273C1.82338 18.4702 1.82338 18.4702 1.76459 18.412C1.71306 18.3629 1.66154 18.3139 1.60845 18.2633C1.54195 18.1933 1.54195 18.1933 1.4741 18.1219C1.44399 18.0909 1.41389 18.0598 1.38287 18.0279C0.55258 17.1337 0.0164038 15.85 0.0135123 14.6276C0.0133397 14.5866 0.0131671 14.5457 0.0129893 14.5035C0.0124875 14.367 0.0123972 14.2305 0.0123102 14.0939C0.0120411 13.9957 0.0117492 13.8976 0.0114361 13.7994C0.0106754 13.533 0.0102996 13.2667 0.0100412 13.0003C0.00987062 12.8336 0.00963202 12.6669 0.00937282 12.5002C0.00857866 11.9777 0.00801714 11.4553 0.00779265 10.9329C0.00753273 10.3314 0.00651481 9.72995 0.00482955 9.12849C0.00356982 8.66259 0.00298731 8.19669 0.00290985 7.73079C0.00284922 7.45302 0.00251156 7.17525 0.00146798 6.89748C0.000503859 6.63577 0.000388674 6.37407 0.000895301 6.11236C0.000939711 6.01691 0.000692393 5.92145 0.000113416 5.826C-0.00835336 4.34169 0.457173 3.07517 1.416 1.93609C1.47161 1.86374 1.47161 1.86374 1.52834 1.78993C2.41647 0.725362 4.01336 0.0167163 5.38015 0.0134927ZM2.98463 3.44445C2.31661 4.29999 2.15357 5.20764 2.15439 6.26211C2.15404 6.35214 2.15364 6.44217 2.1532 6.53219C2.15218 6.7753 2.15191 7.0184 2.15183 7.2615C2.15175 7.41387 2.1515 7.56624 2.15119 7.7186C2.15012 8.25156 2.14964 8.78451 2.14973 9.31746C2.1498 9.81197 2.14858 10.3065 2.14674 10.801C2.14522 11.2274 2.1446 11.6537 2.14467 12.0801C2.1447 12.334 2.14438 12.5878 2.14314 12.8417C2.14201 13.0808 2.14202 13.3199 2.14285 13.5591C2.14297 13.6461 2.14271 13.7331 2.142 13.82C2.13342 14.9435 2.41326 15.9476 3.19798 16.7811C3.96583 17.5537 4.95565 17.8447 6.01847 17.8489C6.10269 17.8488 6.1869 17.8488 6.27111 17.8487C6.36127 17.8491 6.45143 17.8494 6.54159 17.8499C6.78504 17.8509 7.02849 17.8512 7.27194 17.8513C7.42453 17.8513 7.57711 17.8516 7.7297 17.8519C8.26342 17.853 8.79714 17.8534 9.33086 17.8534C9.82607 17.8533 10.3213 17.8545 10.8165 17.8563C11.2435 17.8579 11.6705 17.8585 12.0975 17.8584C12.3517 17.8584 12.6059 17.8587 12.8601 17.8599C13.0996 17.8611 13.3391 17.8611 13.5786 17.8602C13.6657 17.8601 13.7528 17.8604 13.8399 17.8611C14.965 17.8696 15.9705 17.5902 16.8052 16.8066C17.5789 16.0399 17.8704 15.0515 17.8745 13.9902C17.8745 13.9061 17.8744 13.822 17.8744 13.7379C17.8747 13.6479 17.8751 13.5578 17.8756 13.4678C17.8766 13.2247 17.8769 12.9816 17.8769 12.7385C17.877 12.5861 17.8773 12.4338 17.8776 12.2814C17.8786 11.7484 17.8791 11.2155 17.879 10.6825C17.879 10.188 17.8802 9.69354 17.882 9.19904C17.8835 8.77264 17.8842 8.34625 17.8841 7.91986C17.8841 7.66601 17.8844 7.41218 17.8856 7.15833C17.8867 6.91919 17.8867 6.68007 17.8859 6.44092C17.8858 6.35393 17.886 6.26694 17.8868 6.17996C17.8953 5.05653 17.6155 4.05238 16.8308 3.2189C16.0629 2.4463 15.0731 2.15526 14.0103 2.15113C13.9261 2.15117 13.8419 2.15123 13.7576 2.15129C13.6675 2.15095 13.5773 2.15055 13.4872 2.15011C13.2437 2.14909 13.0003 2.14882 12.7568 2.14874C12.6042 2.14866 12.4516 2.14841 12.2991 2.1481C11.7653 2.14703 11.2316 2.14656 10.6979 2.14665C10.2027 2.14672 9.70748 2.14549 9.21226 2.14366C8.78526 2.14214 8.35826 2.14152 7.93125 2.1416C7.67703 2.14162 7.42284 2.1413 7.16863 2.14007C6.92914 2.13893 6.68967 2.13894 6.45018 2.13978C6.36307 2.1399 6.27595 2.13963 6.18884 2.13892C4.92499 2.1293 3.85058 2.50609 2.98463 3.44445Z" fill="#DA4A80"/>
<path d="M13.2643 6.02716C14.2942 6.84233 14.9835 8.02763 15.1769 9.32885C15.2837 11.0173 14.938 12.3218 13.833 13.6189C13.0285 14.4839 11.8232 15.1187 10.6305 15.1874C9.6005 15.2233 8.6815 15.1524 7.75858 14.6579C7.70284 14.6295 7.64711 14.601 7.58969 14.5717C7.11555 14.3152 6.74617 13.993 6.36765 13.6153C6.3031 13.5518 6.3031 13.5518 6.23725 13.487C5.2725 12.4757 4.93721 11.1147 4.96223 9.75695C5.01022 8.38038 5.69904 7.17129 6.66761 6.22696C8.5468 4.59816 11.2908 4.55121 13.2643 6.02716ZM7.81653 8.17036C7.31468 8.81154 7.07441 9.55817 7.13374 10.3715C7.24769 11.2125 7.62478 11.8699 8.26931 12.4169C8.90546 12.8989 9.63061 13.1045 10.4245 13.036C11.3121 12.8975 12.0265 12.4279 12.5616 11.711C12.9885 11.065 13.1259 10.3163 13.0038 9.55512C12.8181 8.74175 12.3982 8.09174 11.7086 7.609C10.4069 6.81943 8.85203 7.03319 7.81653 8.17036Z" fill="#EB2D86"/>
<path d="M15.8251 3.93375C16.1021 4.18061 16.3299 4.43897 16.3652 4.81333C16.3814 5.22048 16.3015 5.47261 16.0743 5.81522C15.773 6.11919 15.5529 6.19477 15.1252 6.21094C14.661 6.19738 14.4164 6.07094 14.1028 5.74687C13.8653 5.38824 13.8364 5.04388 13.8902 4.62446C14.0378 4.24519 14.3305 3.96793 14.7037 3.80065C15.1006 3.71495 15.472 3.72478 15.8251 3.93375Z" fill="#AC08C4"/>
</g>
<defs>
<clipPath id="clip0_420_257">
<rect width="20" height="20" fill="white"/>
</clipPath>
</defs>
</svg>
