<svg width="20" height="20" viewBox="0 0 20 20" fill="none" xmlns="http://www.w3.org/2000/svg">
<g clip-path="url(#clip0_420_301)">
<path d="M18.4232 7.30322C18.4537 7.32955 18.4842 7.35589 18.5156 7.38302C18.5421 7.40573 18.5686 7.42844 18.5959 7.45184C19.3369 8.1378 19.6724 9.19151 19.8535 10.154C19.8594 10.1851 19.8653 10.2162 19.8714 10.2482C19.9888 10.9242 20.0114 11.6041 20.0089 12.2885C20.0088 12.3733 20.0089 12.458 20.0089 12.5428C20.0089 12.7702 20.0085 12.9976 20.0079 13.225C20.0074 13.4636 20.0074 13.7023 20.0073 13.941C20.0071 14.3917 20.0064 14.8423 20.0056 15.293C20.0046 15.903 20.0042 16.5129 20.0037 17.1228C20.003 18.0819 20.0014 19.0411 20 20.0002C18.6207 20.0002 17.2414 20.0002 15.8203 20.0002C15.8189 19.4533 15.8174 18.9064 15.8159 18.343C15.8147 17.9956 15.8135 17.6483 15.8121 17.301C15.81 16.7502 15.808 16.1995 15.8068 15.6487C15.8059 15.2475 15.8046 14.8462 15.8028 14.445C15.8019 14.2328 15.8011 14.0207 15.8009 13.8085C15.8006 13.6082 15.7998 13.4079 15.7987 13.2076C15.7983 13.1347 15.7982 13.0617 15.7982 12.9888C15.7988 12.1634 15.7478 11.1749 15.1523 10.5373C14.7341 10.1464 14.2472 10.0164 13.6816 10.0222C13.6204 10.0226 13.6204 10.0226 13.5579 10.023C12.9396 10.0357 12.4245 10.2102 11.9698 10.6367C11.3269 11.354 11.2713 12.3926 11.2722 13.3084C11.2718 13.382 11.2714 13.4556 11.271 13.5293C11.2699 13.7265 11.2695 13.9238 11.2693 14.1211C11.2689 14.3282 11.2679 14.5354 11.2669 14.7425C11.2653 15.1335 11.2641 15.5246 11.2632 15.9157C11.262 16.445 11.2598 16.9742 11.2577 17.5035C11.2544 18.3357 11.2523 19.168 11.25 20.0002C9.8707 20.0002 8.49141 20.0002 7.07031 20.0002C7.07031 15.5916 7.07031 11.183 7.07031 6.64083C8.38516 6.64083 9.7 6.64083 11.0547 6.64083C11.0676 7.22091 11.0805 7.80099 11.0938 8.39865C11.2098 8.23107 11.3258 8.06349 11.4453 7.89083C11.7175 7.54982 12.027 7.28125 12.3828 7.03146C12.4281 6.99913 12.4281 6.99913 12.4744 6.96615C14.1531 5.86672 16.8906 6.03085 18.4232 7.30322Z" fill="#0077B5"/>
<path d="M0.3125 6.64062C1.6918 6.64062 3.07109 6.64062 4.49219 6.64062C4.49219 11.0492 4.49219 15.4578 4.49219 20C3.11289 20 1.73359 20 0.3125 20C0.3125 15.5914 0.3125 11.1828 0.3125 6.64062Z" fill="#0076B4"/>
<path d="M3.35938 0.156388C3.41489 0.181238 3.41489 0.181238 3.47153 0.20659C3.7465 0.3435 3.96285 0.526637 4.17969 0.742326C4.21209 0.772689 4.21209 0.772689 4.24515 0.803666C4.3931 0.955999 4.48453 1.13823 4.58008 1.32582C4.59343 1.35193 4.60678 1.37805 4.62054 1.40495C4.87182 1.91821 4.89954 2.58671 4.74121 3.1349C4.49022 3.80275 4.06792 4.3295 3.41797 4.64369C2.77611 4.90794 2.13684 4.92618 1.48438 4.68764C0.832363 4.4076 0.415198 3.92636 0.126041 3.2907C-0.0742199 2.76198 -0.0934718 2.08623 0.107273 1.55394C0.123436 1.51814 0.1396 1.48234 0.156253 1.44545C0.17282 1.40844 0.189386 1.37143 0.206455 1.3333C0.343365 1.05833 0.526502 0.841979 0.742191 0.625138C0.762433 0.603537 0.782675 0.581935 0.803531 0.559678C0.955864 0.411732 1.13809 0.320295 1.32569 0.224748C1.3518 0.211398 1.37791 0.198048 1.40481 0.184293C1.9848 -0.0996537 2.77021 -0.109609 3.35938 0.156388Z" fill="#0076B5"/>
</g>
<defs>
<clipPath id="clip0_420_301">
<rect width="20" height="20" fill="white"/>
</clipPath>
</defs>
</svg>
