<svg width="20" height="20" viewBox="0 0 20 20" fill="none" xmlns="http://www.w3.org/2000/svg">
<g clip-path="url(#clip0_624_523)">
<path d="M18.3887 15.3503C17.2992 15.3205 16.4673 15.4223 15.7556 15.722C15.5536 15.8075 15.2314 15.8094 15.1984 16.0627C15.3095 16.1792 15.3266 16.3531 15.4152 16.4966C15.5848 16.7706 15.8717 17.1392 16.1275 17.3328C16.407 17.5434 16.6952 17.7692 16.9948 17.9517C17.5283 18.277 18.1234 18.4627 18.6361 18.788C18.9389 18.9802 19.2391 19.2219 19.5345 19.4386C19.6805 19.5455 19.7787 19.712 19.9678 19.7792V19.7488C19.8683 19.6219 19.8427 19.4472 19.7511 19.3148L19.3483 18.912C18.9545 18.3895 18.4547 17.9306 17.9237 17.5497C17.5002 17.2452 16.5517 16.8344 16.3753 16.3419L16.3442 16.3108C16.6445 16.2766 16.9961 16.168 17.2737 16.0934C17.7394 15.9689 18.1558 16.0013 18.6361 15.8767L19.2867 15.6913V15.5673C19.0437 15.3183 18.8705 14.9881 18.6056 14.7623C17.9117 14.1716 17.1548 13.5819 16.3755 13.09C15.9433 12.8172 15.4092 12.6395 14.9509 12.4083C14.7966 12.3308 14.5261 12.2898 14.4242 12.1605C14.1837 11.8541 14.0525 11.4653 13.867 11.1077C13.4783 10.3588 13.0967 9.54157 12.7519 8.7536C12.5169 8.21657 12.3637 7.68672 12.0708 7.20516C10.6645 4.89313 9.15093 3.49735 6.80593 2.12579C6.30672 1.83407 5.70609 1.71876 5.07125 1.56797L4.0489 1.50626C3.84078 1.41954 3.62468 1.16501 3.42937 1.0411C2.65265 0.550006 0.659841 -0.517494 0.0842163 0.886256C-0.278909 1.77188 0.627498 2.6361 0.95156 3.08532C1.17922 3.39969 1.47031 3.75297 1.63265 4.10704C1.74015 4.34016 1.75844 4.57329 1.85 4.81938C2.07469 5.4261 2.27109 6.08641 2.56234 6.64672C2.70937 6.93047 2.87172 7.22907 3.05797 7.48297C3.17156 7.6386 3.36734 7.70766 3.39859 7.94751C3.20687 8.21547 3.19594 8.6311 3.08859 8.96985C2.60453 10.4964 2.78765 12.3933 3.4914 13.5225C3.7075 13.8698 4.21656 14.6131 4.91593 14.3281C5.52812 14.0784 5.3914 13.3064 5.56656 12.6247C5.60625 12.4703 5.58187 12.3567 5.65937 12.253V12.2841L6.21719 13.3986C6.62984 14.0633 7.36156 14.7578 7.98234 15.2266C8.30406 15.4695 8.55734 15.8894 8.97359 16.0316V16.0005H8.9425C8.86187 15.8747 8.73562 15.8228 8.63312 15.7222C8.39078 15.4842 8.12109 15.1888 7.92078 14.9166C7.35625 14.1506 6.8575 13.3119 6.40343 12.4392C6.18609 12.0223 5.9975 11.5628 5.81437 11.1386C5.74359 10.975 5.74484 10.7272 5.59765 10.643C5.3975 10.9536 5.10203 11.2052 4.94703 11.5719C4.69984 12.1584 4.6675 12.8744 4.57593 13.6159C4.52156 13.6355 4.54547 13.622 4.51375 13.647C4.08219 13.5427 3.93093 13.0989 3.77031 12.7175C3.365 11.7544 3.28937 10.2034 3.6464 9.09391C3.73859 8.80704 4.15609 7.90376 3.98703 7.63829C3.9064 7.37407 3.64031 7.22079 3.4914 7.01876C3.30703 6.76907 3.12344 6.44016 2.99578 6.15141C2.66375 5.40063 2.50937 4.55719 2.15953 3.79797C1.99234 3.43485 1.71031 3.06735 1.47844 2.74516C1.2214 2.38751 0.93406 2.12376 0.734998 1.69172C0.664216 1.53797 0.568435 1.29188 0.67281 1.13454C0.706404 1.02766 0.753435 0.983131 0.858904 0.948443C1.03828 0.809849 1.5389 0.994849 1.72562 1.07235C2.2225 1.2786 2.63687 1.47516 3.05797 1.75407C3.25937 1.88766 3.4639 2.14657 3.70797 2.2186H3.98687C4.42265 2.31876 4.91094 2.24907 5.31859 2.37297C6.03875 2.59204 6.6839 2.93266 7.26984 3.30251C9.05453 4.42985 10.5145 6.03376 11.513 7.94844C11.6734 8.25672 11.7431 8.55032 11.8847 8.87735C12.1697 9.53657 12.5292 10.2147 12.813 10.8598C13.0967 11.5025 13.3727 12.152 13.7736 12.6872C13.9842 12.9686 14.7972 13.1194 15.167 13.2756C15.4264 13.3848 15.8512 13.4991 16.0966 13.6473C16.5653 13.93 17.0194 14.2669 17.4595 14.5763C17.6786 14.7313 18.3548 15.0713 18.3884 15.3508L18.3887 15.3503ZM4.54422 3.55032C4.31719 3.5461 4.15672 3.57469 3.98703 3.61204V3.64313H4.0175C4.12609 3.86532 4.31719 4.00876 4.4514 4.20032L4.76078 4.85094L4.79187 4.82047C4.98359 4.68501 5.0714 4.46891 5.07015 4.13876C4.99328 4.05751 4.98234 3.95688 4.91515 3.85985C4.82734 3.7311 4.65578 3.65844 4.54406 3.55047L4.54422 3.55032Z" fill="#00618A"/>
</g>
<defs>
<clipPath id="clip0_624_523">
<rect width="20" height="20" fill="white"/>
</clipPath>
</defs>
</svg>
