<svg width="32" height="32" viewBox="0 0 32 32" fill="none" xmlns="http://www.w3.org/2000/svg">
<g clip-path="url(#clip0_1198_1472)">
<path d="M16 32C24.8366 32 32 24.8366 32 16C32 7.16344 24.8366 0 16 0C7.16344 0 0 7.16344 0 16C0 24.8366 7.16344 32 16 32Z" fill="black"/>
<path d="M26.5793 28.0035L12.2918 9.59998H9.6001V22.3947H11.7536V12.3347L24.8886 29.3057C25.4805 28.9098 26.0454 28.4747 26.5793 28.0035Z" fill="url(#paint0_linear_1198_1472)"/>
<path d="M20.4446 9.59998H22.5778V22.4H20.4446V9.59998Z" fill="url(#paint1_linear_1198_1472)"/>
</g>
<defs>
<linearGradient id="paint0_linear_1198_1472" x1="19.3778" y1="20.7111" x2="25.6889" y2="28.5333" gradientUnits="userSpaceOnUse">
<stop stop-color="white"/>
<stop offset="1" stop-color="white" stop-opacity="0"/>
</linearGradient>
<linearGradient id="paint1_linear_1198_1472" x1="21.5112" y1="9.59996" x2="21.4754" y2="18.9999" gradientUnits="userSpaceOnUse">
<stop stop-color="white"/>
<stop offset="1" stop-color="white" stop-opacity="0"/>
</linearGradient>
<clipPath id="clip0_1198_1472">
<rect width="32" height="32" fill="white"/>
</clipPath>
</defs>
</svg>
