<svg width="32" height="32" viewBox="0 0 32 32" fill="none" xmlns="http://www.w3.org/2000/svg">
<path d="M15.8478 3.06203C14.7923 3.06703 13.7848 3.15678 12.8978 3.31378C10.2853 3.77528 9.8113 4.74128 9.8113 6.52303V8.87578H15.9846V9.66003H7.4943C5.7003 9.66003 4.1293 10.7383 3.6378 12.7903C3.0708 15.1415 3.0458 16.609 3.6378 19.0643C4.07655 20.892 5.12455 22.194 6.9188 22.194H9.04155V19.3735C9.04155 17.3358 10.8043 15.5385 12.8981 15.5385H19.0643C20.7808 15.5385 22.1508 14.125 22.1508 12.4015V6.52328C22.1508 4.85003 20.7393 3.59328 19.0643 3.31403C18.0033 3.13753 16.9031 3.05728 15.8478 3.06203ZM12.5093 4.95428C13.1468 4.95428 13.6678 5.48353 13.6678 6.13453C13.6678 6.78278 13.1471 7.30703 12.5093 7.30703C11.8693 7.30703 11.3511 6.78278 11.3511 6.13453C11.3508 5.48353 11.8693 4.95428 12.5093 4.95428Z" fill="url(#paint0_linear_1103_1475)"/>
<path d="M22.9205 9.65998V12.4015C22.9205 14.5265 21.1185 16.3152 19.064 16.3152H12.8978C11.2088 16.3152 9.81128 17.761 9.81128 19.4525V25.3312C9.81128 27.004 11.2658 27.9882 12.8978 28.468C14.8518 29.0422 16.7258 29.1462 19.064 28.468C20.618 28.0177 22.1505 27.1122 22.1505 25.3312V22.9782H15.9845V22.1937H25.2375C27.0315 22.1937 27.7005 20.9425 28.3245 19.064C28.969 17.1302 28.9413 15.2705 28.3245 12.79C27.881 11.0037 27.0343 9.65973 25.2375 9.65973L22.9205 9.65998ZM19.4523 24.5467C20.0925 24.5467 20.6108 25.071 20.6108 25.7197C20.6108 26.3702 20.0923 26.8995 19.4523 26.8995C18.8148 26.8995 18.294 26.3702 18.294 25.7197C18.294 25.071 18.8148 24.5467 19.4523 24.5467Z" fill="url(#paint1_linear_1103_1475)"/>
<path opacity="0.444" d="M24.3272 29.8992C24.3272 30.785 20.6232 31.5032 16.0545 31.5032C11.4855 31.5032 7.78149 30.785 7.78149 29.8992C7.78149 29.0135 11.4852 28.295 16.0545 28.295C20.6232 28.295 24.3272 29.013 24.3272 29.8992Z" fill="url(#paint2_radial_1103_1475)"/>
<defs>
<linearGradient id="paint0_linear_1103_1475" x1="2.58427" y1="3.79769" x2="16.8227" y2="15.9402" gradientUnits="userSpaceOnUse">
<stop stop-color="#5A9FD4"/>
<stop offset="1" stop-color="#306998"/>
</linearGradient>
<linearGradient id="paint1_linear_1103_1475" x1="22.1797" y1="23.4881" x2="17.0736" y2="16.3275" gradientUnits="userSpaceOnUse">
<stop stop-color="#FFD43B"/>
<stop offset="1" stop-color="#FFE873"/>
</linearGradient>
<radialGradient id="paint2_radial_1103_1475" cx="0" cy="0" r="1" gradientUnits="userSpaceOnUse" gradientTransform="translate(16.0211 29.8533) rotate(-90) scale(1.60458 7.05347)">
<stop stop-color="#B8B8B8" stop-opacity="0.498"/>
<stop offset="1" stop-color="#7F7F7F" stop-opacity="0"/>
</radialGradient>
</defs>
</svg>
