<svg width="25" height="25" viewBox="0 0 25 25" fill="none" xmlns="http://www.w3.org/2000/svg">
<path fill-rule="evenodd" clip-rule="evenodd" d="M11.4 1.30208H13.6C15.5146 1.30208 17.0312 1.30208 18.2177 1.46145C19.4385 1.62604 20.4271 1.97187 21.2073 2.75104C21.9865 3.53124 22.3323 4.51979 22.4969 5.74062C22.6562 6.92812 22.6562 8.44374 22.6562 10.3583V14.6417C22.6562 16.5562 22.6562 18.0729 22.4969 19.2594C22.3323 20.4802 21.9865 21.4687 21.2073 22.249C20.4271 23.0281 19.4385 23.374 18.2177 23.5385C17.0302 23.6979 15.5146 23.6979 13.6 23.6979H11.4C9.48542 23.6979 7.96875 23.6979 6.78229 23.5385C5.56146 23.374 4.57292 23.0281 3.79271 22.249C3.01354 21.4687 2.66771 20.4802 2.50313 19.2594C2.34375 18.0719 2.34375 16.5562 2.34375 14.6417V10.3583C2.34375 8.44374 2.34375 6.92708 2.50313 5.74062C2.66771 4.51979 3.01354 3.53124 3.79271 2.75104C4.57292 1.97187 5.56146 1.62604 6.78229 1.46145C7.96979 1.30208 9.48542 1.30208 11.4 1.30208ZM6.98958 3.01041C5.94167 3.15104 5.3375 3.41562 4.89583 3.85624C4.45625 4.29687 4.19167 4.90104 4.05104 5.94895C3.90729 7.01979 3.90521 8.4302 3.90521 10.4167V14.5833C3.90521 16.5698 3.90729 17.9812 4.05104 19.0521C4.19167 20.099 4.45625 20.7031 4.89688 21.1437C5.3375 21.5844 5.94167 21.849 6.98958 21.9896C8.06042 22.1333 9.47083 22.1354 11.4573 22.1354H13.5406C15.5271 22.1354 16.9385 22.1333 18.0094 21.9896C19.0562 21.849 19.6604 21.5844 20.101 21.1437C20.5417 20.7031 20.8062 20.099 20.9469 19.051C21.0906 17.9812 21.0927 16.5698 21.0927 14.5833V10.4167C21.0927 8.4302 21.0906 7.01979 20.9469 5.94791C20.8062 4.90104 20.5417 4.29687 20.101 3.85624C19.6604 3.41562 19.0562 3.15104 18.0083 3.01041C16.9385 2.86666 15.5271 2.86458 13.5406 2.86458H11.4573C9.47083 2.86458 8.06146 2.86666 6.98958 3.01041ZM7.55208 8.33333C7.55208 8.12613 7.63439 7.92741 7.78091 7.7809C7.92742 7.63439 8.12613 7.55208 8.33333 7.55208H16.6667C16.8739 7.55208 17.0726 7.63439 17.2191 7.7809C17.3656 7.92741 17.4479 8.12613 17.4479 8.33333C17.4479 8.54053 17.3656 8.73924 17.2191 8.88575C17.0726 9.03227 16.8739 9.11458 16.6667 9.11458H8.33333C8.12613 9.11458 7.92742 9.03227 7.78091 8.88575C7.63439 8.73924 7.55208 8.54053 7.55208 8.33333ZM7.55208 12.5C7.55208 12.2928 7.63439 12.0941 7.78091 11.9476C7.92742 11.8011 8.12613 11.7187 8.33333 11.7187H16.6667C16.8739 11.7187 17.0726 11.8011 17.2191 11.9476C17.3656 12.0941 17.4479 12.2928 17.4479 12.5C17.4479 12.7072 17.3656 12.9059 17.2191 13.0524C17.0726 13.1989 16.8739 13.2812 16.6667 13.2812H8.33333C8.12613 13.2812 7.92742 13.1989 7.78091 13.0524C7.63439 12.9059 7.55208 12.7072 7.55208 12.5ZM7.55208 16.6667C7.55208 16.4595 7.63439 16.2607 7.78091 16.1142C7.92742 15.9677 8.12613 15.8854 8.33333 15.8854H13.5417C13.7489 15.8854 13.9476 15.9677 14.0941 16.1142C14.2406 16.2607 14.3229 16.4595 14.3229 16.6667C14.3229 16.8739 14.2406 17.0726 14.0941 17.2191C13.9476 17.3656 13.7489 17.4479 13.5417 17.4479H8.33333C8.12613 17.4479 7.92742 17.3656 7.78091 17.2191C7.63439 17.0726 7.55208 16.8739 7.55208 16.6667Z" fill="black"/>
</svg>
