<svg width="20" height="20" viewBox="0 0 20 20" fill="none" xmlns="http://www.w3.org/2000/svg">
<g clip-path="url(#clip0_1014_1244)">
<path d="M1.75781 1.23438C0.914062 1.41406 0.191406 2.15234 0.0429688 2.98438C0.0117188 3.14453 0 5.35938 0 10.0156C0 15.6992 0.0117188 16.8594 0.0546875 17.0742C0.195312 17.7227 0.660156 18.3125 1.25781 18.5898C1.4375 18.6758 1.6875 18.7617 1.8125 18.7852C2.14062 18.8438 17.8594 18.8438 18.1875 18.7852C19.0312 18.6328 19.7656 17.918 19.9453 17.0742C19.9883 16.8594 20 15.6992 20 10.0156C20 5.35938 19.9883 3.14453 19.957 2.98438C19.8438 2.35938 19.3594 1.71094 18.7852 1.42969C18.2266 1.15625 18.8086 1.17188 9.98047 1.17578C3.30078 1.17578 1.96875 1.1875 1.75781 1.23438ZM18.0469 1.875C18.5547 1.97266 18.9688 2.29297 19.1914 2.76562L19.3164 3.02734L19.3281 4.42188L19.3398 5.82031H10H0.660156L0.671875 4.42188L0.683594 3.02734L0.808594 2.76562C1.02344 2.30859 1.44531 1.97266 1.92188 1.87891C2.16797 1.82812 17.793 1.82812 18.0469 1.875ZM19.3359 11.6328C19.3359 17.3164 19.3477 17.0273 19.0898 17.4336C18.918 17.6992 18.7148 17.875 18.3984 18.0234L18.1445 18.1445H10H1.85547L1.60156 18.0234C1.28516 17.875 1.08203 17.6992 0.910156 17.4336C0.652344 17.0273 0.664062 17.3164 0.664062 11.6328V6.48438H10H19.3359V11.6328Z" fill="white"/>
<path d="M2.23051 2.81646C1.57426 2.94146 1.21098 3.66803 1.50004 4.2774C1.80863 4.92974 2.67192 5.07037 3.17582 4.55084C3.33988 4.38287 3.4766 4.05084 3.4766 3.82818C3.4766 3.57428 3.33988 3.26959 3.14067 3.08599C2.87113 2.83599 2.57817 2.75006 2.23051 2.81646ZM2.70707 3.59771C2.82035 3.71881 2.83988 3.84381 2.76957 4.00006C2.71098 4.12896 2.49223 4.23053 2.3477 4.19928C2.01567 4.12506 1.95707 3.66021 2.26176 3.50787C2.43363 3.42193 2.56645 3.44928 2.70707 3.59771Z" fill="white"/>
<path d="M5.23438 2.89455C4.84766 3.06643 4.60938 3.43361 4.60938 3.84768C4.61328 4.76955 5.71875 5.22268 6.37109 4.57033C7.02344 3.91799 6.56641 2.81252 5.64453 2.81252C5.49219 2.81252 5.34766 2.84377 5.23438 2.89455ZM5.91406 3.59768C6.05469 3.76564 6.05078 3.95314 5.90234 4.10549C5.81641 4.18752 5.75 4.21877 5.64453 4.21877C5.32031 4.21877 5.14844 3.80861 5.375 3.57814C5.53125 3.4258 5.77734 3.43361 5.91406 3.59768Z" fill="white"/>
<path d="M8.48045 2.87891C8.37889 2.91406 8.22654 3.01953 8.12498 3.12109C7.47264 3.77344 7.92576 4.87891 8.84764 4.88281C9.42576 4.88281 9.88279 4.42578 9.88279 3.84766C9.88279 3.125 9.16795 2.63672 8.48045 2.87891ZM9.10545 3.58984C9.25779 3.74609 9.26561 3.96875 9.11717 4.11719C8.8867 4.34375 8.47654 4.17188 8.47654 3.84766C8.47654 3.64844 8.64842 3.47656 8.84764 3.47656C8.95311 3.47656 9.01951 3.50781 9.10545 3.58984Z" fill="white"/>
<path d="M10.3711 8.48441C10.2773 8.57034 10.2265 8.78128 9.5859 11.8243C8.96481 14.7735 8.90621 15.086 8.95309 15.1836C9.06246 15.4102 9.35153 15.4375 9.49606 15.2305C9.54293 15.1719 9.79684 14.0274 10.2304 11.9688C10.5976 10.2266 10.8984 8.77347 10.8984 8.73831C10.8984 8.62503 10.8125 8.48441 10.7148 8.44144C10.5742 8.37894 10.4843 8.39066 10.3711 8.48441Z" fill="white"/>
<path d="M7.69535 9.79304C7.48051 9.94539 5.50394 11.6524 5.46879 11.7188C5.39457 11.8555 5.42582 11.9844 5.55863 12.1173C5.76957 12.3282 7.65629 13.9219 7.76176 13.9766C7.87894 14.0391 8.10551 13.9766 8.1641 13.8673C8.23441 13.7344 8.20707 13.5626 8.09769 13.4415C8.03519 13.379 7.60941 13.0079 7.14847 12.6173C6.68754 12.2227 6.30472 11.8907 6.29691 11.8751C6.29301 11.8594 6.68363 11.5079 7.16801 11.0977C7.65238 10.6837 8.08597 10.3087 8.12504 10.2618C8.23441 10.1446 8.2266 9.94148 8.10551 9.82429C7.99222 9.71101 7.83207 9.69929 7.69535 9.79304Z" fill="white"/>
<path d="M11.8945 9.82429C11.7734 9.94148 11.7656 10.1446 11.875 10.2618C11.914 10.3087 12.3476 10.6837 12.832 11.0977C13.3164 11.5079 13.707 11.8594 13.7031 11.8751C13.6953 11.8907 13.3125 12.2227 12.8515 12.6173C12.3906 13.0079 11.9648 13.379 11.9062 13.4415C11.7929 13.5626 11.7656 13.7344 11.8359 13.8673C11.8945 13.9766 12.1211 14.0391 12.2382 13.9766C12.3437 13.9219 14.2304 12.3282 14.4414 12.1173C14.5742 11.9844 14.6054 11.8555 14.5312 11.7188C14.4961 11.6524 12.5195 9.94539 12.3046 9.79304C12.1679 9.69929 12.0078 9.71101 11.8945 9.82429Z" fill="white"/>
</g>
<defs>
<clipPath id="clip0_1014_1244">
<rect width="20" height="20" fill="white"/>
</clipPath>
</defs>
</svg>
