<svg width="20" height="20" viewBox="0 0 20 20" fill="none" xmlns="http://www.w3.org/2000/svg">
<g clip-path="url(#clip0_420_250)">
<path d="M9.5207 -0.00813602C9.57371 -0.00854967 9.57371 -0.00854967 9.62778 -0.00897167C11.0922 -0.0178081 11.0922 -0.0178081 11.7187 0.116986C11.7764 0.128939 11.7764 0.128939 11.8351 0.141133C13.9578 0.59004 15.9586 1.71169 17.3047 3.4373C17.3355 3.47572 17.3663 3.51414 17.3981 3.55372C18.7115 5.20493 19.3941 7.24632 19.3896 9.34794C19.3896 9.40454 19.3896 9.40454 19.3896 9.46228C19.3871 10.4027 19.2567 11.2857 18.9844 12.1873C18.9746 12.2199 18.9648 12.2525 18.9547 12.2862C18.6396 13.3091 18.1252 14.2786 17.4609 15.117C17.4362 15.1492 17.4116 15.1813 17.3862 15.2145C16.9432 15.7841 16.4297 16.3162 15.8594 16.7576C15.838 16.7742 15.8166 16.7907 15.7945 16.8078C15.2194 17.2497 14.6044 17.6264 13.9453 17.9295C13.9173 17.9424 13.8893 17.9553 13.8604 17.9687C11.5505 19.0204 8.95645 19.0244 6.59265 18.1519C6.34172 18.0563 6.10201 17.9424 5.86333 17.8196C5.68833 17.7526 5.59199 17.7936 5.4215 17.8642C5.37362 17.8862 5.32584 17.9084 5.27815 17.9309C5.25194 17.943 5.22572 17.9551 5.19871 17.9675C5.1419 17.9938 5.08513 18.0201 5.0284 18.0465C4.87392 18.1184 4.71913 18.1897 4.56434 18.2609C4.53233 18.2757 4.50032 18.2904 4.46734 18.3056C4.17174 18.4415 3.87444 18.5735 3.57674 18.7048C2.91734 18.9955 2.26292 19.2965 1.60967 19.6008C1.51792 19.6435 1.42613 19.6862 1.33435 19.7289C1.23426 19.7754 1.13436 19.8222 1.03455 19.8693C0.996122 19.8872 0.957695 19.9052 0.918104 19.9237C0.886259 19.9387 0.854413 19.9537 0.821602 19.9692C0.742171 19.9998 0.742171 19.9998 0.624983 19.9998C0.65114 19.7153 0.721177 19.4474 0.794117 19.1716C0.807609 19.12 0.82108 19.0683 0.83453 19.0167C0.863377 18.906 0.892315 18.7954 0.921303 18.6847C0.967154 18.5095 1.01239 18.334 1.05748 18.1585C1.06511 18.1288 1.07274 18.0991 1.0806 18.0685C1.10409 17.9771 1.12756 17.8857 1.15103 17.7943C1.24795 17.4169 1.3453 17.0396 1.44456 16.6627C1.51712 16.3873 1.58849 16.1115 1.6585 15.8354C1.69553 15.6896 1.73313 15.544 1.77218 15.3987C1.80893 15.2619 1.84407 15.1248 1.87808 14.9874C1.89677 14.9135 1.91709 14.8402 1.93748 14.7668C2.01237 14.4554 1.98247 14.2807 1.8201 14.0036C1.79954 13.9714 1.77898 13.9392 1.7578 13.906C1.7312 13.8588 1.70485 13.8113 1.67891 13.7637C1.6558 13.7228 1.63268 13.682 1.60887 13.6399C1.14503 12.7883 0.854587 11.8146 0.703108 10.8592C0.692633 10.7932 0.692633 10.7932 0.681946 10.726C0.618467 10.2803 0.610988 9.83912 0.612776 9.38945C0.61286 9.35137 0.612944 9.3133 0.613031 9.27407C0.614974 8.72689 0.626995 8.19291 0.742171 7.65605C0.753812 7.59936 0.753812 7.59936 0.765688 7.54153C1.11849 5.85547 1.8695 4.31056 3.04686 3.04667C3.09426 2.99232 3.14147 2.9378 3.18846 2.8831C3.41086 2.62922 3.64837 2.41044 3.91188 2.1992C3.98185 2.14272 4.05106 2.08528 4.11909 2.02647C5.56067 0.790833 7.61992 0.00174977 9.5207 -0.00813602ZM4.41405 4.3748C3.52729 5.36881 2.96094 6.56162 2.65623 7.85136C2.64867 7.88284 2.64111 7.91433 2.63333 7.94677C2.41078 8.9275 2.4669 10.083 2.6953 11.0545C2.70199 11.0848 2.70868 11.1151 2.71557 11.1463C2.95775 12.2229 3.5075 13.4292 4.29686 14.2185C4.28355 14.4271 4.20198 14.6135 4.1255 14.8056C4.11224 14.8394 4.09898 14.8732 4.08532 14.9081C4.04292 15.016 4.00022 15.1239 3.9575 15.2317C3.92953 15.3029 3.90158 15.374 3.87366 15.4451C3.65918 15.9906 3.65918 15.9906 3.56022 16.2324C3.54919 16.2595 3.53816 16.2866 3.5268 16.3145C3.49746 16.3863 3.46788 16.458 3.43827 16.5297C3.3918 16.6392 3.3918 16.6392 3.39842 16.7576C3.59156 16.6918 3.75294 16.5841 3.92332 16.4744C3.95531 16.454 3.9873 16.4336 4.02026 16.4126C4.08918 16.3686 4.15806 16.3246 4.2269 16.2805C4.37767 16.184 4.52873 16.088 4.67979 15.9919C4.75317 15.9452 4.82654 15.8985 4.89988 15.8517C4.96703 15.8089 5.03429 15.7663 5.10166 15.7238C5.1628 15.6847 5.22329 15.6445 5.28298 15.6031C5.48023 15.4692 5.48023 15.4692 5.61003 15.4663C5.73066 15.5198 5.83342 15.5867 5.94237 15.6614C7.56934 16.7358 9.55381 17.1097 11.4648 16.7372C12.9173 16.4323 14.1664 15.7458 15.2344 14.7264C15.2677 14.6951 15.301 14.6638 15.3354 14.6316C16.3664 13.6379 17.0404 12.2867 17.3437 10.8982C17.3501 10.8704 17.3565 10.8426 17.3631 10.8139C17.5812 9.82695 17.5401 8.67253 17.3047 7.69511C17.2965 7.6604 17.2883 7.6257 17.2799 7.58994C16.8273 5.72171 15.6304 4.06757 14.0088 3.03935C13.923 2.98886 13.8367 2.93929 13.75 2.89042C13.7235 2.87529 13.6971 2.86015 13.6699 2.84455C12.5464 2.20626 11.3142 1.89603 10.0244 1.89921C9.97561 1.89924 9.97561 1.89924 9.92583 1.89928C7.80864 1.90561 5.85157 2.83219 4.41405 4.3748Z" fill="#299A84"/>
<path d="M7.24117 5.14905C7.2739 5.14857 7.30663 5.1481 7.34035 5.1476C7.74513 5.14665 7.74513 5.14665 7.91111 5.28371C7.98175 5.36708 8.01421 5.44584 8.05373 5.54774C8.06936 5.58764 8.08499 5.62754 8.1011 5.66865C8.11758 5.71174 8.13407 5.75483 8.15105 5.79923C8.16823 5.84359 8.1854 5.88796 8.2031 5.93367C8.23933 6.02755 8.27541 6.1215 8.31133 6.2155C8.36636 6.35921 8.42213 6.50262 8.47797 6.64602C8.51309 6.73727 8.54816 6.82854 8.58318 6.91983C8.60826 6.98412 8.60826 6.98412 8.63385 7.04969C8.65674 7.1101 8.65674 7.1101 8.6801 7.17173C8.69363 7.20694 8.70715 7.24215 8.72109 7.27843C8.76148 7.42464 8.77593 7.55846 8.71379 7.69925C8.5487 7.93317 8.36655 8.15024 8.17928 8.36652C8.03329 8.53022 8.03329 8.53022 8.01418 8.74128C8.14703 9.58496 9.14539 10.4506 9.79091 10.9256C10.5349 11.4776 10.5349 11.4776 11.4062 11.6408C11.6434 11.4801 11.8141 11.2575 11.9799 11.028C12.3051 10.5806 12.3051 10.5806 12.5275 10.5166C12.6881 10.5058 12.7966 10.5531 12.9377 10.6213C12.9643 10.6335 12.9908 10.6458 13.0181 10.6584C13.1036 10.698 13.1888 10.7384 13.2739 10.7789C13.3323 10.8063 13.3908 10.8336 13.4492 10.8609C13.5635 10.9142 13.6776 10.9679 13.7916 11.0218C13.9182 11.0815 14.0456 11.1392 14.1737 11.1957C14.2045 11.2094 14.2354 11.2232 14.2672 11.2374C14.3207 11.2613 14.3744 11.2848 14.4283 11.3078C14.5841 11.3789 14.6591 11.4437 14.7265 11.6017C14.7551 11.7308 14.7551 11.7308 14.7729 11.8702C14.7791 11.9161 14.7853 11.9619 14.7917 12.0091C14.8256 12.3743 14.8034 12.6088 14.58 12.9005C14.1409 13.4121 13.5257 13.8499 12.8397 13.9149C11.8737 13.964 10.9972 13.6544 10.1562 13.2032C10.1307 13.1898 10.1052 13.1764 10.0789 13.1625C9.47777 12.8448 8.93015 12.457 8.42066 12.0072C8.3766 11.9684 8.33225 11.93 8.2877 11.8918C7.81843 11.4876 7.36287 11.0444 6.99215 10.547C6.9733 10.5221 6.95446 10.4971 6.93504 10.4714C6.15927 9.44131 5.46568 8.25086 5.5859 6.91419C5.68895 6.31306 6.11051 5.63038 6.60366 5.26273C6.8124 5.14064 7.005 5.14923 7.24117 5.14905Z" fill="#299A84"/>
</g>
<defs>
<clipPath id="clip0_420_250">
<rect width="20" height="20" fill="white"/>
</clipPath>
</defs>
</svg>
