<svg width="25" height="25" viewBox="0 0 25 25" fill="none" xmlns="http://www.w3.org/2000/svg">
<path d="M2 20.25C2 18.7913 2.57946 17.3924 3.61091 16.3609C4.64236 15.3295 6.04131 14.75 7.5 14.75H18.5C19.9587 14.75 21.3576 15.3295 22.3891 16.3609C23.4205 17.3924 24 18.7913 24 20.25C24 20.9793 23.7103 21.6788 23.1945 22.1945C22.6788 22.7103 21.9793 23 21.25 23H4.75C4.02065 23 3.32118 22.7103 2.80546 22.1945C2.28973 21.6788 2 20.9793 2 20.25Z" stroke="currentColor" strokeWidth="1.66667" strokeLinejoin="round"/>
<path d="M13 9.25C15.2782 9.25 17.125 7.40317 17.125 5.125C17.125 2.84682 15.2782 1 13 1C10.7218 1 8.875 2.84682 8.875 5.125C8.875 7.40317 10.7218 9.25 13 9.25Z" stroke="currentColor" strokeWidth="1.66667"/>
</svg>
