<svg width="25" height="25" viewBox="0 0 25 25" fill="none" xmlns="http://www.w3.org/2000/svg">
<path d="M18.2292 2.08334H8.33335C6.03217 2.08334 4.16669 3.94882 4.16669 6.25001V18.75C4.16669 21.0512 6.03217 22.9167 8.33335 22.9167H18.2292C20.5304 22.9167 22.3959 21.0512 22.3959 18.75V6.25001C22.3959 3.94882 20.5304 2.08334 18.2292 2.08334Z" stroke="black" stroke-width="1.25" stroke-linecap="round" stroke-linejoin="round"/>
<path d="M11.0313 14.3125C10.3761 14.7521 8.6594 15.6479 9.70523 16.7687C10.2156 17.3167 10.7854 17.7083 11.5 17.7083H15.5834C16.2979 17.7083 16.8677 17.3167 17.3781 16.7687C18.424 15.6479 16.7073 14.7521 16.0521 14.3135C15.3115 13.8106 14.4369 13.5418 13.5417 13.5418C12.6465 13.5418 11.7719 13.8106 11.0313 14.3135M5.20835 6.25H2.60419M5.20835 12.5H2.60419M5.20835 18.75H2.60419M15.625 9.375C15.625 9.92753 15.4055 10.4574 15.0148 10.8481C14.6241 11.2388 14.0942 11.4583 13.5417 11.4583C12.9892 11.4583 12.4592 11.2388 12.0685 10.8481C11.6778 10.4574 11.4584 9.92753 11.4584 9.375C11.4584 8.82247 11.6778 8.29256 12.0685 7.90186C12.4592 7.51116 12.9892 7.29167 13.5417 7.29167C14.0942 7.29167 14.6241 7.51116 15.0148 7.90186C15.4055 8.29256 15.625 8.82247 15.625 9.375Z" stroke="black" stroke-width="1.25" stroke-linecap="round" stroke-linejoin="round"/>
</svg>
