<svg width="20" height="20" viewBox="0 0 20 20" fill="none" xmlns="http://www.w3.org/2000/svg">
<g clip-path="url(#clip0_624_496)">
<path d="M15.3125 0H4.6875C2.09867 0 0 2.09867 0 4.6875V15.3125C0 17.9013 2.09867 20 4.6875 20H15.3125C17.9013 20 20 17.9013 20 15.3125V4.6875C20 2.09867 17.9013 0 15.3125 0Z" fill="#F4F2ED"/>
<mask id="mask0_624_496" style="mask-type:luminance" maskUnits="userSpaceOnUse" x="4" y="2" width="12" height="16">
<path d="M4.76562 2.1875H15.1844V17.8125H4.76562V2.1875Z" fill="white"/>
</mask>
<g mask="url(#mask0_624_496)">
<path d="M7.37086 17.8125C8.80836 17.8125 9.975 16.6459 9.975 15.2084V12.6041H7.37086C5.93336 12.6041 4.76664 13.7709 4.76664 15.2084C4.76664 16.6459 5.93336 17.8125 7.37086 17.8125Z" fill="#0ACF83"/>
<path d="M4.76664 10C4.76664 8.5625 5.93336 7.39586 7.37086 7.39586H9.975V12.6041H7.37086C5.93336 12.6041 4.76664 11.4375 4.76664 10Z" fill="#A259FF"/>
<path d="M4.76664 4.79164C4.76664 3.35414 5.93336 2.1875 7.37086 2.1875H9.975V7.39586H7.37086C5.93336 7.39586 4.76664 6.22914 4.76664 4.79164Z" fill="#F24E1E"/>
<path d="M9.975 2.1875H12.5791C14.0166 2.1875 15.1834 3.35414 15.1834 4.79164C15.1834 6.22914 14.0166 7.39586 12.5791 7.39586H9.975V2.1875Z" fill="#FF7262"/>
<path d="M15.1834 10C15.1834 11.4375 14.0166 12.6041 12.5791 12.6041C11.1416 12.6041 9.975 11.4375 9.975 10C9.975 8.5625 11.1416 7.39586 12.5791 7.39586C14.0166 7.39586 15.1834 8.5625 15.1834 10Z" fill="#1ABCFE"/>
</g>
</g>
<defs>
<clipPath id="clip0_624_496">
<rect width="20" height="20" fill="white"/>
</clipPath>
</defs>
</svg>
