<svg width="20" height="20" viewBox="0 0 20 20" fill="none" xmlns="http://www.w3.org/2000/svg">
<g clip-path="url(#clip0_1014_1229)">
<path d="M1.5625 1.73421C0.988281 1.89827 0.523438 2.26937 0.253906 2.77718C0.03125 3.20296 0 3.40609 0 4.52327C0 5.37874 0.0078125 5.53109 0.0664062 5.62484C0.199219 5.8514 0.519531 5.89046 0.707031 5.70687L0.820312 5.59359V4.65218C0.820312 4.12093 0.839844 3.62484 0.863281 3.50765C0.945312 3.12093 1.21875 2.77718 1.58203 2.60921C1.76562 2.52327 1.83594 2.51937 2.83203 2.49984C3.99219 2.4764 4.03125 2.47249 4.125 2.23812C4.19922 2.07015 4.14453 1.87484 3.99609 1.75765C3.90234 1.68343 3.84375 1.67952 2.81641 1.68343C2.07422 1.68734 1.68359 1.70296 1.5625 1.73421Z" fill="white"/>
<path d="M16.0039 1.75771C15.8555 1.8749 15.8008 2.07021 15.875 2.23818C15.9687 2.47256 16.0078 2.47646 17.168 2.4999C18.1719 2.51943 18.2305 2.52334 18.4297 2.61318C18.6836 2.72646 18.9883 3.05068 19.0859 3.30849C19.1445 3.46474 19.1601 3.67177 19.1758 4.5624L19.1992 5.63271L19.3086 5.72646C19.4961 5.88662 19.8086 5.83974 19.9336 5.6249C19.9922 5.53115 20 5.37881 20 4.52334C20 3.78115 19.9844 3.47256 19.9414 3.28506C19.7656 2.54677 19.168 1.93349 18.4375 1.73818C18.2734 1.69521 17.9687 1.67959 17.164 1.67959C16.1601 1.67959 16.0976 1.68349 16.0039 1.75771Z" fill="white"/>
<path d="M9.17969 5.04292C7.02344 5.28902 5.12891 6.45699 4.05078 8.20308C3.70703 8.76558 3.34766 9.67574 3.34766 9.99996C3.34766 10.3242 3.70703 11.2343 4.05078 11.7968C5.87891 14.7656 9.93359 15.8632 13.1875 14.2734C14.8086 13.4804 15.9609 12.1953 16.5273 10.539C16.6836 10.082 16.6836 9.91792 16.5273 9.46089C16.1289 8.30074 15.4648 7.34761 14.5117 6.56246C13.0977 5.4023 11.0859 4.82808 9.17969 5.04292ZM11.0742 5.92183C12.25 6.10542 13.4297 6.67574 14.2695 7.46089C14.9453 8.09371 15.4141 8.80464 15.7031 9.64058L15.832 9.99996L15.7031 10.3593C15.4297 11.1445 15.0312 11.7695 14.3945 12.4023C11.9844 14.8164 7.76953 14.7382 5.43359 12.2421C4.92188 11.6914 4.54297 11.0703 4.29688 10.3593L4.16797 9.99996L4.29688 9.63667C5.01562 7.56246 7.00391 6.0898 9.39062 5.85933C9.83594 5.81636 10.5664 5.84371 11.0742 5.92183Z" fill="white"/>
<path d="M9.45707 7.55852C9.02738 7.65227 8.57425 7.90617 8.24222 8.24211C7.26566 9.21867 7.25785 10.7773 8.22269 11.7382C8.69926 12.2109 9.22269 12.453 9.85941 12.4882C11 12.5507 12.0469 11.8241 12.3946 10.7226C12.5157 10.3359 12.5157 9.66399 12.3946 9.27727C12 8.03508 10.7227 7.28508 9.45707 7.55852ZM10.5703 8.44133C11.3086 8.71867 11.7657 9.48039 11.6446 10.2382C11.4961 11.1484 10.6407 11.7851 9.76176 11.6445C8.8516 11.496 8.21488 10.6405 8.3555 9.76164C8.49613 8.88664 9.27347 8.26945 10.1368 8.34758C10.2657 8.3593 10.461 8.40227 10.5703 8.44133Z" fill="white"/>
<path d="M0.210938 14.2226C0.015625 14.3203 0 14.4101 0 15.4765C0 16.5937 0.03125 16.7968 0.253906 17.2226C0.484375 17.664 0.910156 18.0312 1.38672 18.2109C1.60547 18.2968 1.69141 18.3007 2.74609 18.3124C4.00391 18.3242 4.01562 18.3242 4.125 18.0585C4.17188 17.9492 4.17578 17.8945 4.14062 17.789C4.05469 17.5312 4.01172 17.5234 2.83203 17.4999C1.82812 17.4804 1.76953 17.4765 1.57031 17.3867C1.31641 17.2734 1.01172 16.9492 0.914062 16.6914C0.855469 16.5351 0.839844 16.3281 0.824219 15.4374L0.800781 14.3671L0.691406 14.2734C0.574219 14.1718 0.363281 14.1523 0.210938 14.2226Z" fill="white"/>
<path d="M19.3085 14.2734L19.1992 14.3671L19.1757 15.4374C19.1601 16.3281 19.1445 16.5351 19.0859 16.6914C18.9882 16.9492 18.6835 17.2734 18.4296 17.3867C18.2304 17.4765 18.1718 17.4804 17.1679 17.4999C15.9882 17.5234 15.9453 17.5312 15.8593 17.789C15.8242 17.8945 15.8281 17.9492 15.8749 18.0585C15.9843 18.3242 15.996 18.3242 17.2539 18.3124C18.3085 18.3007 18.3945 18.2968 18.6132 18.2109C19.0898 18.0312 19.5156 17.664 19.746 17.2226C19.9687 16.7968 19.9999 16.5937 19.9999 15.4765C19.9999 14.621 19.9921 14.4687 19.9335 14.3749C19.8085 14.1601 19.496 14.1132 19.3085 14.2734Z" fill="white"/>
</g>
<defs>
<clipPath id="clip0_1014_1229">
<rect width="20" height="20" fill="white"/>
</clipPath>
</defs>
</svg>
