<svg width="20" height="20" viewBox="0 0 20 20" fill="none" xmlns="http://www.w3.org/2000/svg">
<g clip-path="url(#clip0_1014_1240)">
<path d="M6.49609 0.0546875C5.89844 0.199219 5.39453 0.644531 5.17969 1.21094C5.14453 1.30859 5.03125 1.84375 4.92578 2.40234L4.73828 3.41797L2.96484 3.4375L1.19141 3.45703L0.929688 3.58203C0.566406 3.75391 0.339844 3.97266 0.164062 4.32812L0.0195312 4.625V10.3125V16L0.164062 16.2969C0.339844 16.6523 0.566406 16.8711 0.929688 17.043L1.19141 17.168L6.09375 17.1875L10.9922 17.207L11.3008 17.7539C11.8164 18.6719 11.8555 18.707 12.2344 18.5234C12.3711 18.457 12.5703 18.3516 12.6797 18.2852L12.875 18.168L13.1094 18.3398C13.2344 18.4336 13.5039 18.5898 13.6992 18.6797L14.0625 18.8477V19.3281C14.0625 19.7852 14.0664 19.8125 14.1602 19.9023L14.2539 20H15.3125H16.3711L16.4648 19.9023C16.5586 19.8125 16.5625 19.7852 16.5625 19.3164C16.5625 19 16.5781 18.8281 16.6055 18.8281C16.6875 18.8281 17.3086 18.4961 17.5234 18.3359L17.75 18.168L17.9844 18.3047C18.1172 18.3789 18.3125 18.4883 18.4258 18.543C18.7539 18.7109 18.7695 18.6992 19.3672 17.6602C19.6523 17.1719 19.8828 16.7305 19.8828 16.6836C19.8828 16.5625 19.6914 16.3906 19.3164 16.1758L19.0039 15.9961L19.0234 15.8398C19.0469 15.6367 19.0469 14.9883 19.0234 14.7852L19.0039 14.6289L19.3164 14.4492C19.6914 14.2344 19.8828 14.0625 19.8828 13.9414C19.8828 13.8945 19.6523 13.4531 19.3672 12.9648C18.7656 11.918 18.7578 11.9102 18.4062 12.0938C18.2812 12.1562 18.1719 12.2109 18.1562 12.2188C18.1406 12.2266 18.1211 10.5234 18.1172 8.42969L18.1055 4.62891L17.9805 4.36719C17.8086 4.00391 17.5898 3.77734 17.2344 3.60156L16.9375 3.45703L15.1602 3.4375L13.3867 3.41797L13.1953 2.38281C13.0391 1.53906 12.9805 1.29688 12.875 1.07422C12.6367 0.570312 12.207 0.207031 11.6836 0.0703125C11.4531 0.0117188 11.1719 0.00390625 9.0625 0.00390625C7.30859 0.0078125 6.64844 0.0195312 6.49609 0.0546875ZM11.7109 0.738281C11.957 0.847656 12.2734 1.17578 12.3594 1.41406C12.4023 1.53906 12.7344 3.30078 12.7344 3.41797C12.7344 3.42969 12.6211 3.4375 12.4844 3.4375C12.2773 3.4375 12.2266 3.42578 12.2109 3.36719C12.1992 3.33203 12.1367 2.99219 12.0703 2.61719C12 2.24219 11.9258 1.88281 11.8984 1.81641C11.8242 1.63672 11.6484 1.45312 11.4688 1.35547C11.3086 1.26953 11.2891 1.26953 9.14062 1.25781C7.56641 1.25 6.92578 1.25781 6.80469 1.29297C6.60547 1.34766 6.29688 1.60938 6.22266 1.78906C6.19141 1.86328 6.11719 2.22266 6.05078 2.59375C5.98828 2.96094 5.92969 3.30078 5.91797 3.34766C5.89844 3.42969 5.875 3.4375 5.64453 3.4375C5.46094 3.4375 5.39062 3.42188 5.39062 3.38672C5.39062 3.21875 5.74609 1.43359 5.80078 1.32812C5.89062 1.15625 6.16016 0.867188 6.30469 0.792969C6.61328 0.628906 6.64844 0.628906 9.12109 0.636719L11.5039 0.644531L11.7109 0.738281ZM11.1875 1.91797C11.2383 1.94531 11.3008 2.00781 11.3242 2.06641C11.3633 2.16797 11.5625 3.25391 11.5625 3.37109C11.5625 3.43359 11.3672 3.4375 9.0625 3.4375C6.70703 3.4375 6.5625 3.43359 6.5625 3.36719C6.5625 3.33203 6.61328 3.01953 6.67578 2.67578C6.77734 2.12109 6.80078 2.04297 6.89453 1.96484L6.99609 1.875H9.04297C10.4805 1.875 11.1172 1.88672 11.1875 1.91797ZM16.8516 4.10938C17.0664 4.17188 17.3906 4.49609 17.4531 4.71094C17.5195 4.94141 17.5195 8.49609 17.4531 8.72656C17.3906 8.94141 17.0664 9.26562 16.8516 9.32812C16.7305 9.36328 15.8906 9.375 13.5 9.375H10.3125V8.84766C10.3125 8.33594 10.3086 8.3125 10.2148 8.22266L10.1211 8.125H9.0625H8.00391L7.91016 8.22266C7.81641 8.3125 7.8125 8.33594 7.8125 8.84766V9.375H4.625C2.23438 9.375 1.39453 9.36328 1.27344 9.32812C1.05859 9.26562 0.734375 8.94141 0.671875 8.72656C0.605469 8.49609 0.605469 4.94141 0.671875 4.71094C0.730469 4.51172 1.05859 4.17578 1.25 4.11328C1.45703 4.04688 16.6289 4.04688 16.8516 4.10938ZM9.67969 9.48828C9.66797 10.2969 9.65625 10.332 9.39844 10.5234C9.24609 10.6367 8.87891 10.6367 8.72656 10.5234C8.46875 10.332 8.45703 10.2969 8.44531 9.48828L8.43359 8.75H9.0625H9.69141L9.67969 9.48828ZM1.05078 9.92969C1.15625 9.96484 2.00781 9.98047 4.49609 9.99219L7.80469 10.0039L7.83203 10.1836C7.89062 10.5859 8.11719 10.8984 8.48438 11.0977C8.71094 11.2188 8.75781 11.2305 9.0625 11.2266C9.34375 11.2266 9.42578 11.2109 9.59375 11.125C9.70312 11.0664 9.84766 10.9766 9.91016 10.9219C10.0625 10.793 10.2617 10.418 10.293 10.1875L10.3203 10.0039L13.6094 9.99219C16.5977 9.98047 16.9141 9.97266 17.0938 9.91016C17.2031 9.875 17.3398 9.80859 17.3984 9.76172L17.5 9.68359V10.9766V12.2695L17.3359 12.168C17.2422 12.1094 17.0312 12 16.8672 11.9219L16.5625 11.7812V11.2969C16.5625 10.8398 16.5586 10.8125 16.4648 10.7227L16.3711 10.625H15.3125H14.2539L14.1602 10.7227C14.0664 10.8125 14.0625 10.8398 14.0625 11.3086C14.0625 11.6133 14.0469 11.7969 14.0234 11.7969C13.9375 11.7969 13.3164 12.1289 13.1016 12.2891L12.875 12.457L12.6406 12.3203C12.5078 12.2461 12.3125 12.1367 12.1992 12.082C11.8789 11.918 11.8516 11.9414 11.3398 12.8047C10.875 13.582 10.7461 13.8359 10.7422 13.9688C10.7422 14.0859 10.8711 14.1992 11.2734 14.4297C11.6211 14.6289 11.6211 14.6289 11.6016 14.7656C11.5898 14.8398 11.582 15.0859 11.582 15.3125C11.582 15.5391 11.5898 15.7852 11.6016 15.8594C11.6211 15.9922 11.6211 15.9922 11.2305 16.2227C11.0156 16.3477 10.8242 16.4766 10.8086 16.5078C10.7812 16.5547 10.0859 16.5625 6.10547 16.5625C2.55078 16.5625 1.39453 16.5508 1.27344 16.5156C1.05859 16.4531 0.734375 16.1289 0.671875 15.9141C0.636719 15.793 0.625 14.9883 0.625 12.7227V9.69141L0.765625 9.78516C0.84375 9.83984 0.972656 9.90234 1.05078 9.92969ZM15.9375 11.6758C15.9375 12.1992 15.9609 12.2344 16.4453 12.4219C16.8164 12.5664 17.1094 12.7383 17.4062 12.9922C17.5156 13.0859 17.6445 13.1641 17.6914 13.1641C17.7812 13.1641 18.0742 13.0234 18.3281 12.8672C18.4102 12.8164 18.4922 12.7734 18.5117 12.7734C18.543 12.7734 19.1406 13.7734 19.1406 13.8242C19.1406 13.8359 18.9805 13.9336 18.7852 14.043C18.5898 14.1484 18.4062 14.2734 18.375 14.3164C18.332 14.3828 18.332 14.4531 18.3867 14.7461C18.4531 15.125 18.4375 15.75 18.3555 16.0312C18.293 16.2578 18.3477 16.332 18.7695 16.5859L19.1406 16.8086L19.0703 16.9297C19.0312 16.9961 18.8945 17.2305 18.7695 17.4492C18.6406 17.6719 18.5195 17.8516 18.5 17.8516C18.4805 17.8516 18.3281 17.7734 18.1602 17.6719C17.7266 17.418 17.6445 17.4141 17.4023 17.6289C17.1172 17.8828 16.8125 18.0625 16.4102 18.2266C16.2148 18.3047 16.0273 18.4062 15.9961 18.4492C15.9531 18.5117 15.9375 18.6445 15.9375 18.9531V19.375H15.3125H14.6875V18.9492C14.6875 18.5586 14.6797 18.5117 14.6016 18.4219C14.5508 18.3711 14.4141 18.2969 14.2969 18.2617C13.9922 18.1641 13.7695 18.0469 13.4805 17.8281C13.0391 17.4883 12.9922 17.4609 12.9102 17.4609C12.8672 17.4609 12.668 17.5586 12.4727 17.6719L12.1094 17.8867L11.9023 17.5273C11.7852 17.3281 11.6445 17.0859 11.5859 16.9883L11.4844 16.8086L11.8398 16.5977C12.3164 16.3164 12.3203 16.3086 12.2461 15.8789C12.1719 15.4453 12.1719 15.1797 12.2461 14.7422C12.3047 14.418 12.3047 14.3945 12.2383 14.3008C12.1953 14.25 12.0117 14.1172 11.8242 14.0117L11.4844 13.8164L11.5859 13.6367C11.6445 13.5391 11.7852 13.2969 11.9023 13.0977L12.1094 12.7383L12.4688 12.9531C12.668 13.0703 12.8594 13.1641 12.9023 13.1641C13.0039 13.1641 13.1055 13.1016 13.3828 12.875C13.6367 12.6641 14.0547 12.4414 14.3984 12.3281C14.6562 12.2422 14.6875 12.1719 14.6875 11.6602V11.25H15.3125H15.9375V11.6758Z" fill="white"/>
<path d="M14.8242 13.6094C14.3164 13.7773 13.957 14.0859 13.7227 14.5586C13.5781 14.8555 13.5742 14.8672 13.5742 15.3125C13.5742 15.7578 13.5781 15.7695 13.7227 16.0664C13.9141 16.457 14.168 16.7109 14.5586 16.9023C14.8555 17.0469 14.8672 17.0508 15.3086 17.0508C15.75 17.0508 15.7695 17.0469 16.0586 16.9102C16.4414 16.7266 16.707 16.4609 16.9023 16.0664C17.0469 15.7695 17.0508 15.7578 17.0508 15.3125C17.0508 14.8672 17.0469 14.8516 16.9062 14.5664C16.7188 14.1836 16.4414 13.9062 16.0625 13.7187C15.7891 13.5859 15.7422 13.5742 15.375 13.5664C15.125 13.5586 14.9219 13.5742 14.8242 13.6094ZM15.7266 14.2461C15.9844 14.332 16.293 14.6406 16.3789 14.8984C16.4766 15.1797 16.4648 15.5234 16.3516 15.7617C16.2188 16.0469 16.082 16.1914 15.8125 16.3242C15.3633 16.5508 14.8633 16.4687 14.5078 16.1172C14.0586 15.6641 14.0586 14.957 14.5117 14.5078C14.6289 14.3906 14.7773 14.2852 14.8828 14.2461C15.1172 14.1641 15.4883 14.1641 15.7266 14.2461Z" fill="white"/>
</g>
<defs>
<clipPath id="clip0_1014_1240">
<rect width="20" height="20" fill="white"/>
</clipPath>
</defs>
</svg>
